<?xml version="1.0" encoding="utf-8"?>
<!-- Generator: Adobe Illustrator 16.0.0, SVG Export Plug-In . SVG Version: 6.00 Build 0)  -->
<!DOCTYPE svg PUBLIC "-//W3C//DTD SVG 1.1//EN" "http://www.w3.org/Graphics/SVG/1.1/DTD/svg11.dtd">
<svg version="1.1" id="Слой_1" xmlns="http://www.w3.org/2000/svg" xmlns:xlink="http://www.w3.org/1999/xlink" x="0px" y="0px"
	 width="78.323px" height="61.538px" viewBox="0 0 78.323 61.538" enable-background="new 0 0 78.323 61.538" xml:space="preserve">
<g>
	<path fill="#525251" d="M76.812,46.879L58.59,10.263c-1.873-3.917-4.598-3.065-4.598-3.065H28.447c-4.77,0-5.621,2.896-5.621,2.896
		L4.433,46.879c-2.215,4.769,3.575,5.279,3.575,5.279s9.538,0.004,12.093,0.004s3.065-1.536,3.065-1.536s2.215-3.917,3.065-5.79
		c0.852-1.873,2.896-1.874,2.896-1.874s19.926,0,22.65,0c2.724,0,3.066,1.362,3.066,1.362l3.064,5.961
		c1.023,2.044,2.727,1.873,2.727,1.873h12.432C79.879,52.158,76.812,46.879,76.812,46.879z M46.329,34.447h-11.24
		c0,0-2.896,0.681-2.385-2.726l6.302-12.432c0,0,1.873-2.554,3.235,0l6.301,12.432C48.542,31.721,49.734,34.447,46.329,34.447z"/>
	<linearGradient id="SVGID_1_" gradientUnits="userSpaceOnUse" x1="1.3179" y1="27.3691" x2="73.1631" y2="27.3691">
		<stop  offset="0" style="stop-color:#DADADA"/>
		<stop  offset="0.1742" style="stop-color:#D7D7D7"/>
		<stop  offset="0.3567" style="stop-color:#CDCDCD"/>
		<stop  offset="0.5429" style="stop-color:#BDBDBC"/>
		<stop  offset="0.7319" style="stop-color:#A5A5A4"/>
		<stop  offset="0.921" style="stop-color:#858585"/>
		<stop  offset="1" style="stop-color:#757474"/>
	</linearGradient>
	<path fill="url(#SVGID_1_)" stroke="#FFFFFF" stroke-width="0.75" stroke-miterlimit="10" d="M72.492,44.203L54.695,8.446
		c-1.828-3.826-4.489-2.994-4.489-2.994H25.261c-4.658,0-5.489,2.829-5.489,2.829L1.81,44.203c-2.161,4.657,3.493,5.155,3.493,5.155
		s9.313,0.004,11.809,0.004c2.494,0,2.992-1.5,2.992-1.5s2.162-3.826,2.994-5.654c0.832-1.829,2.828-1.83,2.828-1.83
		s19.459,0,22.119,0c2.661,0,2.992,1.331,2.992,1.331l2.994,5.821c0.998,1.996,2.662,1.829,2.662,1.829h12.141
		C75.484,49.358,72.492,44.203,72.492,44.203z M42.724,32.062H31.748c0,0-2.828,0.665-2.329-2.661l6.153-12.141
		c0,0,1.829-2.494,3.159,0l6.153,12.141C44.884,29.401,46.048,32.062,42.724,32.062z"/>
</g>
</svg>
