<?xml version="1.0" encoding="utf-8"?>
<!-- Generator: Adobe Illustrator 16.0.0, SVG Export Plug-In . SVG Version: 6.00 Build 0)  -->
<!DOCTYPE svg PUBLIC "-//W3C//DTD SVG 1.1//EN" "http://www.w3.org/Graphics/SVG/1.1/DTD/svg11.dtd">
<svg version="1.1" id="Слой_1" xmlns="http://www.w3.org/2000/svg" xmlns:xlink="http://www.w3.org/1999/xlink" x="0px" y="0px"
	 width="67.563px" height="61.538px" viewBox="0 0 67.563 61.538" enable-background="new 0 0 67.563 61.538" xml:space="preserve">
<g>
	<path fill="#525251" d="M66.177,35.114c0.147-4.732-2.81-6.147-2.81-6.147v-8.347c0-13.163-14.346-12.127-14.346-12.127
		s-34.016,0-39.192,0s-4.584,3.845-4.584,3.845v37.121c0,3.697,3.697,3.402,3.697,3.402h36.382c0,0,11.979,0.591,17.007-3.402
		C66.769,46.206,66.177,35.114,66.177,35.114z M24.175,17.958c0,0,0.444-1.183,2.958-1.183c2.515,0,11.979,0,11.979,0
		s4.585,0.444,5.324,5.324c0,0,2.219,4.437-6.507,4.437H26.098c0,0-1.922,0.147-1.922-1.479V17.958z M36.45,45.023H26.098
		c0,0-1.922-0.296-1.922-1.627v-7.247c0,0-0.296-1.183,2.366-1.183s16.86,0,16.86,0s4.141,0.295,3.697,4.215
		C47.099,39.181,47.542,45.023,36.45,45.023z"/>
	<linearGradient id="SVGID_1_" gradientUnits="userSpaceOnUse" x1="2.1772" y1="28.1768" x2="62.394" y2="28.1768">
		<stop  offset="0" style="stop-color:#DADADA"/>
		<stop  offset="0.1742" style="stop-color:#D7D7D7"/>
		<stop  offset="0.3567" style="stop-color:#CDCDCD"/>
		<stop  offset="0.5429" style="stop-color:#BDBDBC"/>
		<stop  offset="0.7319" style="stop-color:#A5A5A4"/>
		<stop  offset="0.921" style="stop-color:#858585"/>
		<stop  offset="1" style="stop-color:#757474"/>
	</linearGradient>
	<path fill="url(#SVGID_1_)" stroke="#FFFFFF" stroke-width="0.75" stroke-miterlimit="10" d="M62.368,32.552
		c0.145-4.673-2.775-6.07-2.775-6.07V18.24c0-12.998-14.166-11.975-14.166-11.975s-33.591,0-38.703,0
		c-5.111,0-4.527,3.798-4.527,3.798v36.657c0,3.651,3.651,3.359,3.651,3.359h35.926c0,0,11.83,0.583,16.796-3.359
		C62.951,43.506,62.368,32.552,62.368,32.552z M20.891,15.611c0,0,0.438-1.169,2.92-1.169c2.483,0,11.831,0,11.831,0
		s4.527,0.439,5.257,5.259c0,0,2.191,4.381-6.426,4.381H22.79c0,0-1.899,0.146-1.899-1.46V15.611z M33.012,42.338H22.79
		c0,0-1.899-0.292-1.899-1.606v-7.157c0,0-0.292-1.168,2.336-1.168s16.65,0,16.65,0s4.088,0.293,3.65,4.162
		C43.527,36.568,43.965,42.338,33.012,42.338z"/>
</g>
</svg>
