<?xml version="1.0" encoding="utf-8"?>
<!-- Generator: Adobe Illustrator 16.0.0, SVG Export Plug-In . SVG Version: 6.00 Build 0)  -->
<!DOCTYPE svg PUBLIC "-//W3C//DTD SVG 1.1//EN" "http://www.w3.org/Graphics/SVG/1.1/DTD/svg11.dtd">
<svg version="1.1" id="Слой_1" xmlns="http://www.w3.org/2000/svg" xmlns:xlink="http://www.w3.org/1999/xlink" x="0px" y="0px"
	 width="125.937px" height="61.538px" viewBox="0 0 125.937 61.538" enable-background="new 0 0 125.937 61.538"
	 xml:space="preserve">
<g>
	<path fill="#525251" d="M66.63,11.984c0,0,0-3.941,3.941-3.941s12.823,0,12.823,0s2.127-0.625,2.127,1.971s0,31.496,0,31.496
		s-0.252,2.127,2.252,2.127c2.502,0,34.529,0,34.529,0s2.875-0.751,2,1.751s-4.752,6.63-14.512,6.63c-9.758,0-39.406,0-39.406,0
		s-3.44-0.749-3.44-3.44C66.945,45.889,66.63,11.984,66.63,11.984z"/>
	<linearGradient id="SVGID_1_" gradientUnits="userSpaceOnUse" x1="63.8149" y1="27.2095" x2="120.7778" y2="27.2095">
		<stop  offset="0" style="stop-color:#DADADA"/>
		<stop  offset="0.1742" style="stop-color:#D7D7D7"/>
		<stop  offset="0.3567" style="stop-color:#CDCDCD"/>
		<stop  offset="0.5429" style="stop-color:#BDBDBC"/>
		<stop  offset="0.7319" style="stop-color:#A5A5A4"/>
		<stop  offset="0.921" style="stop-color:#858585"/>
		<stop  offset="1" style="stop-color:#757474"/>
	</linearGradient>
	<path fill="url(#SVGID_1_)" stroke="#FFFFFF" stroke-width="0.7542" stroke-miterlimit="10" d="M63.815,9.469
		c0,0,0-3.881,3.882-3.881c3.881,0,12.63,0,12.63,0s2.092-0.616,2.092,1.939c0,2.557,0,31.02,0,31.02s-0.246,2.094,2.219,2.094
		s34.006,0,34.006,0s2.834-0.738,1.971,1.726c-0.861,2.464-4.682,6.53-14.293,6.53s-38.81,0-38.81,0s-3.389-0.74-3.389-3.389
		S63.815,9.469,63.815,9.469z"/>
</g>
<g>
	<path fill="#525251" d="M3.867,31.029V20.9c0,0-0.83-12.451,13.118-12.949h29.387c0,0,9.131-0.83,12.949,3.984
		c0,0,4.152,3.985-0.994,3.985H28.938c0,0-6.309,0.497-6.309,6.807v13.614c0,0-0.166,7.638,5.146,7.638h28.059h4.15
		c0,0,1.662,0.498,0,3.32c0,0-2.656,4.648-11.123,4.648H18.313c0,0-14.455,0.83-14.455-12.12L3.867,31.029z"/>
	<linearGradient id="SVGID_2_" gradientUnits="userSpaceOnUse" x1="1.668" y1="27.1924" x2="57.7798" y2="27.1924">
		<stop  offset="0" style="stop-color:#DADADA"/>
		<stop  offset="0.1742" style="stop-color:#D7D7D7"/>
		<stop  offset="0.3567" style="stop-color:#CDCDCD"/>
		<stop  offset="0.5429" style="stop-color:#BDBDBC"/>
		<stop  offset="0.7319" style="stop-color:#A5A5A4"/>
		<stop  offset="0.921" style="stop-color:#858585"/>
		<stop  offset="1" style="stop-color:#757474"/>
	</linearGradient>
	<path fill="url(#SVGID_2_)" stroke="#FFFFFF" stroke-width="0.75" stroke-miterlimit="10" d="M1.678,28.275v-9.962
		c0,0-0.818-12.249,12.901-12.739h28.906c0,0,8.982-0.816,12.738,3.92c0,0,4.084,3.92-0.979,3.92H26.336c0,0-6.205,0.49-6.205,6.695
		V33.5c0,0-0.164,7.514,5.062,7.514h27.602h4.08c0,0,1.635,0.489,0,3.266c0,0-2.611,4.574-10.939,4.574H15.885
		c0,0-14.217,0.815-14.217-11.923L1.678,28.275z"/>
</g>
</svg>
