<?xml version="1.0" encoding="utf-8"?>
<!-- Generator: Adobe Illustrator 16.0.0, SVG Export Plug-In . SVG Version: 6.00 Build 0)  -->
<!DOCTYPE svg PUBLIC "-//W3C//DTD SVG 1.1//EN" "http://www.w3.org/Graphics/SVG/1.1/DTD/svg11.dtd">
<svg version="1.1" id="Слой_1" xmlns="http://www.w3.org/2000/svg" xmlns:xlink="http://www.w3.org/1999/xlink" x="0px" y="0px"
	 width="201.77px" height="61.538px" viewBox="0 0 201.77 61.538" enable-background="new 0 0 201.77 61.538" xml:space="preserve">
<g>
	<g>
		<path fill="#525251" d="M66.463,12.982c0,0,0-3.941,3.941-3.941s12.823,0,12.823,0s2.127-0.625,2.127,1.971s0,31.496,0,31.496
			s-0.252,2.127,2.252,2.127c2.502,0,34.529,0,34.529,0s2.875-0.751,2,1.751s-4.752,6.63-14.512,6.63c-9.758,0-39.406,0-39.406,0
			s-3.44-0.749-3.44-3.44C66.778,46.886,66.463,12.982,66.463,12.982z"/>
		<linearGradient id="SVGID_1_" gradientUnits="userSpaceOnUse" x1="63.6479" y1="28.207" x2="120.6108" y2="28.207">
			<stop  offset="0" style="stop-color:#DADADA"/>
			<stop  offset="0.1742" style="stop-color:#D7D7D7"/>
			<stop  offset="0.3567" style="stop-color:#CDCDCD"/>
			<stop  offset="0.5429" style="stop-color:#BDBDBC"/>
			<stop  offset="0.7319" style="stop-color:#A5A5A4"/>
			<stop  offset="0.921" style="stop-color:#858585"/>
			<stop  offset="1" style="stop-color:#757474"/>
		</linearGradient>
		<path fill="url(#SVGID_1_)" stroke="#FFFFFF" stroke-width="0.7542" stroke-miterlimit="10" d="M63.648,10.466
			c0,0,0-3.881,3.882-3.881c3.881,0,12.63,0,12.63,0s2.092-0.616,2.092,1.939c0,2.557,0,31.02,0,31.02s-0.246,2.094,2.219,2.094
			s34.006,0,34.006,0s2.834-0.738,1.971,1.726c-0.861,2.464-4.682,6.53-14.293,6.53s-38.81,0-38.81,0s-3.389-0.74-3.389-3.389
			S63.648,10.466,63.648,10.466z"/>
	</g>
	<g>
		<path fill="#525251" d="M3.7,32.027V21.898c0,0-0.83-12.451,13.117-12.949h29.387c0,0,9.131-0.83,12.95,3.984
			c0,0,4.152,3.985-0.994,3.985H28.771c0,0-6.309,0.497-6.309,6.807v13.614c0,0-0.166,7.638,5.147,7.638h28.058h4.15
			c0,0,1.662,0.498,0,3.32c0,0-2.656,4.648-11.124,4.648H18.146c0,0-14.454,0.83-14.454-12.12L3.7,32.027z"/>
		<linearGradient id="SVGID_2_" gradientUnits="userSpaceOnUse" x1="1.501" y1="28.1895" x2="57.6128" y2="28.1895">
			<stop  offset="0" style="stop-color:#DADADA"/>
			<stop  offset="0.1742" style="stop-color:#D7D7D7"/>
			<stop  offset="0.3567" style="stop-color:#CDCDCD"/>
			<stop  offset="0.5429" style="stop-color:#BDBDBC"/>
			<stop  offset="0.7319" style="stop-color:#A5A5A4"/>
			<stop  offset="0.921" style="stop-color:#858585"/>
			<stop  offset="1" style="stop-color:#757474"/>
		</linearGradient>
		<path fill="url(#SVGID_2_)" stroke="#FFFFFF" stroke-width="0.75" stroke-miterlimit="10" d="M1.511,29.273v-9.962
			c0,0-0.818-12.249,12.901-12.739h28.905c0,0,8.983-0.816,12.739,3.92c0,0,4.084,3.92-0.979,3.92H26.169
			c0,0-6.205,0.49-6.205,6.695v13.391c0,0-0.163,7.514,5.063,7.514h27.601h4.08c0,0,1.635,0.489,0,3.266
			c0,0-2.611,4.574-10.94,4.574H15.718c0,0-14.217,0.815-14.217-11.923L1.511,29.273z"/>
	</g>
	<g>
		<path fill="#525251" d="M199.689,48.022l-18.223-36.616c-1.873-3.917-4.598-3.065-4.598-3.065h-25.545
			c-4.77,0-5.621,2.896-5.621,2.896L127.31,48.022c-2.215,4.768,3.574,5.278,3.574,5.278s9.539,0.004,12.094,0.004
			s3.064-1.536,3.064-1.536s2.215-3.918,3.066-5.79c0.852-1.873,2.895-1.874,2.895-1.874s19.926,0,22.65,0s3.066,1.362,3.066,1.362
			l3.064,5.961c1.023,2.044,2.727,1.873,2.727,1.873h12.432C202.755,53.3,199.689,48.022,199.689,48.022z M169.205,35.589h-11.24
			c0,0-2.895,0.681-2.385-2.726l6.303-12.432c0,0,1.873-2.555,3.234,0l6.301,12.432C171.417,32.864,172.611,35.589,169.205,35.589z"
			/>
		<linearGradient id="SVGID_3_" gradientUnits="userSpaceOnUse" x1="124.1938" y1="28.5112" x2="196.0396" y2="28.5112">
			<stop  offset="0" style="stop-color:#DADADA"/>
			<stop  offset="0.1742" style="stop-color:#D7D7D7"/>
			<stop  offset="0.3567" style="stop-color:#CDCDCD"/>
			<stop  offset="0.5429" style="stop-color:#BDBDBC"/>
			<stop  offset="0.7319" style="stop-color:#A5A5A4"/>
			<stop  offset="0.921" style="stop-color:#858585"/>
			<stop  offset="1" style="stop-color:#757474"/>
		</linearGradient>
		<path fill="url(#SVGID_3_)" stroke="#FFFFFF" stroke-width="0.75" stroke-miterlimit="10" d="M195.369,45.346L177.572,9.588
			c-1.828-3.825-4.488-2.994-4.488-2.994h-24.945c-4.658,0-5.49,2.829-5.49,2.829l-17.961,35.923
			c-2.162,4.656,3.492,5.154,3.492,5.154s9.314,0.004,11.809,0.004s2.992-1.5,2.992-1.5s2.162-3.826,2.994-5.654
			c0.832-1.829,2.828-1.83,2.828-1.83s19.459,0,22.119,0c2.662,0,2.992,1.331,2.992,1.331l2.994,5.821
			c0.998,1.995,2.662,1.828,2.662,1.828h12.141C198.361,50.5,195.369,45.346,195.369,45.346z M165.601,33.205h-10.977
			c0,0-2.828,0.665-2.33-2.661l6.154-12.141c0,0,1.828-2.494,3.158,0l6.154,12.141C167.761,30.543,168.925,33.205,165.601,33.205z"
			/>
	</g>
</g>
</svg>
