<?xml version="1.0" encoding="utf-8"?>
<!-- Generator: Adobe Illustrator 16.0.0, SVG Export Plug-In . SVG Version: 6.00 Build 0)  -->
<!DOCTYPE svg PUBLIC "-//W3C//DTD SVG 1.1//EN" "http://www.w3.org/Graphics/SVG/1.1/DTD/svg11.dtd">
<svg version="1.1" id="Слой_1" xmlns="http://www.w3.org/2000/svg" xmlns:xlink="http://www.w3.org/1999/xlink" x="0px" y="0px"
	 width="197.271px" height="61.538px" viewBox="0 0 197.271 61.538" enable-background="new 0 0 197.271 61.538"
	 xml:space="preserve">
<g>
	<path fill="#525251" d="M4.331,31.337V21.208c0,0-0.83-12.452,13.117-12.95h29.387c0,0,9.132-0.83,12.95,3.984
		c0,0,4.151,3.985-0.995,3.985H29.401c0,0-6.309,0.497-6.309,6.806v13.615c0,0-0.166,7.637,5.147,7.637h28.059h4.15
		c0,0,1.661,0.498,0,3.32c0,0-2.656,4.648-11.124,4.648H18.776c0,0-14.454,0.83-14.454-12.119L4.331,31.337z"/>
	<linearGradient id="SVGID_1_" gradientUnits="userSpaceOnUse" x1="2.1313" y1="27.5" x2="58.2432" y2="27.5">
		<stop  offset="0" style="stop-color:#DADADA"/>
		<stop  offset="0.1742" style="stop-color:#D7D7D7"/>
		<stop  offset="0.3567" style="stop-color:#CDCDCD"/>
		<stop  offset="0.5429" style="stop-color:#BDBDBC"/>
		<stop  offset="0.7319" style="stop-color:#A5A5A4"/>
		<stop  offset="0.921" style="stop-color:#858585"/>
		<stop  offset="1" style="stop-color:#757474"/>
	</linearGradient>
	<path fill="url(#SVGID_1_)" stroke="#FFFFFF" stroke-width="0.75" stroke-miterlimit="10" d="M2.141,28.583v-9.962
		c0,0-0.818-12.249,12.901-12.739h28.905c0,0,8.982-0.816,12.739,3.92c0,0,4.083,3.92-0.979,3.92H26.799c0,0-6.205,0.49-6.205,6.695
		v13.391c0,0-0.163,7.514,5.063,7.514h27.601h4.081c0,0,1.634,0.488,0,3.266c0,0-2.612,4.574-10.94,4.574H16.348
		c0,0-14.217,0.814-14.217-11.924L2.141,28.583z"/>
</g>
<g>
	<path fill="#525251" d="M67.292,12.262c0,0,0-3.941,3.942-3.941s12.823,0,12.823,0s2.127-0.625,2.127,1.971s0,31.495,0,31.495
		s-0.25,2.127,2.252,2.127s34.529,0,34.529,0s2.877-0.751,2.002,1.751c-0.877,2.502-4.754,6.63-14.512,6.63
		c-9.76,0-39.409,0-39.409,0s-3.44-0.749-3.44-3.44C67.606,46.165,67.292,12.262,67.292,12.262z"/>
	<linearGradient id="SVGID_2_" gradientUnits="userSpaceOnUse" x1="64.4761" y1="27.4863" x2="121.4399" y2="27.4863">
		<stop  offset="0" style="stop-color:#DADADA"/>
		<stop  offset="0.1742" style="stop-color:#D7D7D7"/>
		<stop  offset="0.3567" style="stop-color:#CDCDCD"/>
		<stop  offset="0.5429" style="stop-color:#BDBDBC"/>
		<stop  offset="0.7319" style="stop-color:#A5A5A4"/>
		<stop  offset="0.921" style="stop-color:#858585"/>
		<stop  offset="1" style="stop-color:#757474"/>
	</linearGradient>
	<path fill="url(#SVGID_2_)" stroke="#FFFFFF" stroke-width="0.7542" stroke-miterlimit="10" d="M64.476,9.747
		c0,0,0-3.881,3.882-3.881c3.881,0,12.63,0,12.63,0s2.094-0.616,2.094,1.94s0,31.018,0,31.018s-0.246,2.096,2.217,2.096
		c2.467,0,34.006,0,34.006,0s2.834-0.74,1.973,1.725c-0.861,2.463-4.684,6.529-14.293,6.529c-9.611,0-38.812,0-38.812,0
		s-3.389-0.738-3.389-3.389C64.784,43.136,64.476,9.747,64.476,9.747z"/>
</g>
<g>
	<path fill="#525251" d="M130.513,50.751V11.952c0,0-0.152-2.586,2.586-2.586s14.605,0,14.605,0s2.131,0.152,2.131,2.13
		c0,1.978,0,11.26,0,11.26s0.609,1.218,1.826,0s17.65-12.325,17.65-12.325h21.756l-25.865,19.628l27.691,22.67h-24.191
		L149.38,36.753l-0.457,15.976h-17.803h-0.609L130.513,50.751z"/>
	<linearGradient id="SVGID_3_" gradientUnits="userSpaceOnUse" x1="126.3179" y1="27.0469" x2="188.7026" y2="27.0469">
		<stop  offset="0" style="stop-color:#DADADA"/>
		<stop  offset="0.1742" style="stop-color:#D7D7D7"/>
		<stop  offset="0.3567" style="stop-color:#CDCDCD"/>
		<stop  offset="0.5429" style="stop-color:#BDBDBC"/>
		<stop  offset="0.7319" style="stop-color:#A5A5A4"/>
		<stop  offset="0.921" style="stop-color:#858585"/>
		<stop  offset="1" style="stop-color:#757474"/>
	</linearGradient>
	<path fill="url(#SVGID_3_)" stroke="#FFFFFF" stroke-width="0.75" stroke-miterlimit="10" d="M126.32,46.751V7.952
		c0,0-0.152-2.586,2.586-2.586c2.74,0,14.607,0,14.607,0s2.131,0.152,2.131,2.13c0,1.978,0,11.259,0,11.259s0.607,1.217,1.826,0
		c1.217-1.217,17.648-12.324,17.648-12.324h21.758l-25.865,19.628l27.691,22.67h-24.193l-19.322-15.976l-0.457,15.976h-17.801
		h-0.609V46.751z"/>
</g>
</svg>
