<?xml version="1.0" encoding="utf-8"?>
<!-- Generator: Adobe Illustrator 16.0.0, SVG Export Plug-In . SVG Version: 6.00 Build 0)  -->
<!DOCTYPE svg PUBLIC "-//W3C//DTD SVG 1.1//EN" "http://www.w3.org/Graphics/SVG/1.1/DTD/svg11.dtd">
<svg version="1.1" id="Слой_1" xmlns="http://www.w3.org/2000/svg" xmlns:xlink="http://www.w3.org/1999/xlink" x="0px" y="0px"
	 width="187.604px" height="61.538px" viewBox="0 0 187.604 61.538" enable-background="new 0 0 187.604 61.538"
	 xml:space="preserve">
<g>
	<path fill="#525251" d="M66.573,11.975c0,0,0-3.941,3.941-3.941s12.824,0,12.824,0s2.127-0.625,2.127,1.971s0,31.496,0,31.496
		s-0.252,2.127,2.252,2.127c2.502,0,34.529,0,34.529,0s2.875-0.751,2,1.751s-4.752,6.63-14.512,6.63c-9.758,0-39.406,0-39.406,0
		s-3.441-0.749-3.441-3.44C66.887,45.878,66.573,11.975,66.573,11.975z"/>
	<linearGradient id="SVGID_1_" gradientUnits="userSpaceOnUse" x1="63.7583" y1="27.1992" x2="120.7202" y2="27.1992">
		<stop  offset="0" style="stop-color:#DADADA"/>
		<stop  offset="0.1742" style="stop-color:#D7D7D7"/>
		<stop  offset="0.3567" style="stop-color:#CDCDCD"/>
		<stop  offset="0.5429" style="stop-color:#BDBDBC"/>
		<stop  offset="0.7319" style="stop-color:#A5A5A4"/>
		<stop  offset="0.921" style="stop-color:#858585"/>
		<stop  offset="1" style="stop-color:#757474"/>
	</linearGradient>
	<path fill="url(#SVGID_1_)" stroke="#FFFFFF" stroke-width="0.7542" stroke-miterlimit="10" d="M63.758,9.459
		c0,0,0-3.881,3.881-3.881s12.631,0,12.631,0s2.092-0.616,2.092,1.94s0,31.019,0,31.019s-0.246,2.095,2.219,2.095s34.006,0,34.006,0
		s2.834-0.739,1.971,1.725c-0.861,2.463-4.682,6.53-14.293,6.53s-38.811,0-38.811,0s-3.389-0.739-3.389-3.389
		C64.065,42.849,63.758,9.459,63.758,9.459z"/>
</g>
<g>
	<path fill="#525251" d="M152.833,16.814l27.416-0.103c0,0,3.525-0.013,2.557-2.093c-0.971-2.082-4.025-4.795-10.922-5.25
		c-6.895-0.455-24.852-0.55-24.852-0.55s-17.316-0.737-17.281,8.722s-0.928,9.302,3.252,12.332
		c4.18,3.031,18.615,4.901,18.615,4.901s13.15,1.394,13.32,3.638c0.168,2.244-0.621,5.293-4.148,5.627
		c-3.525,0.334-28.535,0.105-28.535,0.105s-6.096-0.939-3.195,3.219c2.902,4.157,7.068,3.981,10.117,4.292
		c3.047,0.309,27.096,0.539,27.096,0.539s16.84,2.023,17.756-10.647c0,0,3.006-10.752-7.582-12.637l-25.027-4.717
		c0,0-4.65-0.303-3.703-4.154C147.715,20.039,148.024,16.832,152.833,16.814z"/>
	
		<linearGradient id="SVGID_2_" gradientUnits="userSpaceOnUse" x1="126.0298" y1="28.5894" x2="182.2007" y2="28.5894" gradientTransform="matrix(1 -0.0037 0.0037 1 0.625 -0.7476)">
		<stop  offset="0" style="stop-color:#DADADA"/>
		<stop  offset="0.1742" style="stop-color:#D7D7D7"/>
		<stop  offset="0.3567" style="stop-color:#CDCDCD"/>
		<stop  offset="0.5429" style="stop-color:#BDBDBC"/>
		<stop  offset="0.7319" style="stop-color:#A5A5A4"/>
		<stop  offset="0.921" style="stop-color:#858585"/>
		<stop  offset="1" style="stop-color:#757474"/>
	</linearGradient>
	<path fill="url(#SVGID_2_)" stroke="#FFFFFF" stroke-width="0.75" stroke-miterlimit="10" d="M151.372,13.519l27.414-0.103
		c0,0,3.527-0.013,2.559-2.093c-0.971-2.082-4.027-4.795-10.922-5.25c-6.896-0.455-24.852-0.55-24.852-0.55
		s-17.318-0.737-17.283,8.722s-0.926,9.303,3.254,12.332c4.18,3.031,18.615,4.901,18.615,4.901s13.15,1.394,13.32,3.638
		c0.168,2.244-0.623,5.293-4.148,5.627s-28.537,0.105-28.537,0.105s-6.094-0.939-3.193,3.219c2.9,4.157,7.068,3.981,10.115,4.292
		c3.049,0.309,27.098,0.539,27.098,0.539s16.84,2.023,17.754-10.647c0,0,3.008-10.752-7.58-12.637l-25.029-4.717
		c0,0-4.65-0.303-3.701-4.154C146.254,16.744,146.563,13.537,151.372,13.519z"/>
</g>
<g>
	<path fill="#525251" d="M3.81,31.019V20.891c0,0-0.83-12.452,13.117-12.95h29.387c0,0,9.132-0.83,12.95,3.985
		c0,0,4.151,3.985-0.995,3.985H28.88c0,0-6.309,0.498-6.309,6.807v13.614c0,0-0.166,7.638,5.147,7.638h28.059h4.15
		c0,0,1.661,0.498,0,3.32c0,0-2.656,4.648-11.124,4.648H18.255c0,0-14.454,0.83-14.454-12.12L3.81,31.019z"/>
	<linearGradient id="SVGID_3_" gradientUnits="userSpaceOnUse" x1="1.6108" y1="27.1816" x2="57.7222" y2="27.1816">
		<stop  offset="0" style="stop-color:#DADADA"/>
		<stop  offset="0.1742" style="stop-color:#D7D7D7"/>
		<stop  offset="0.3567" style="stop-color:#CDCDCD"/>
		<stop  offset="0.5429" style="stop-color:#BDBDBC"/>
		<stop  offset="0.7319" style="stop-color:#A5A5A4"/>
		<stop  offset="0.921" style="stop-color:#858585"/>
		<stop  offset="1" style="stop-color:#757474"/>
	</linearGradient>
	<path fill="url(#SVGID_3_)" stroke="#FFFFFF" stroke-width="0.75" stroke-miterlimit="10" d="M1.621,28.265v-9.961
		c0,0-0.818-12.25,12.901-12.74h28.905c0,0,8.982-0.815,12.739,3.921c0,0,4.083,3.919-0.979,3.919H26.279
		c0,0-6.205,0.49-6.205,6.696v13.391c0,0-0.163,7.513,5.063,7.513h27.601h4.081c0,0,1.634,0.489,0,3.266
		c0,0-2.612,4.573-10.94,4.573H15.828c0,0-14.217,0.816-14.217-11.922L1.621,28.265z"/>
</g>
</svg>
