<?xml version="1.0" encoding="utf-8"?>
<!-- Generator: Adobe Illustrator 16.0.0, SVG Export Plug-In . SVG Version: 6.00 Build 0)  -->
<!DOCTYPE svg PUBLIC "-//W3C//DTD SVG 1.1//EN" "http://www.w3.org/Graphics/SVG/1.1/DTD/svg11.dtd">
<svg version="1.1" id="Слой_1" xmlns="http://www.w3.org/2000/svg" xmlns:xlink="http://www.w3.org/1999/xlink" x="0px" y="0px"
	 width="61.538px" height="61.538px" viewBox="0 0 61.538 61.538" enable-background="new 0 0 61.538 61.538" xml:space="preserve">
<g>
	<path fill="#525251" d="M3.07,49.528V13.752c0,0-0.244-4.047,3.676-4.047c3.922,0,36.51,0,36.51,0s14.58-0.363,16.785,6.13
		c0,0,1.838,2.205-3.676,2.205c-5.512,0-32.957,0-32.957,0s-2.021,0.123-2.021,2.021c0,1.899,0,5.82,0,5.82
		s-0.121,1.562,1.562,1.562s26.801,0,26.801,0s2.084-0.214,2.084,1.623c0,1.838,0,5.146,0,5.146s-0.369,0.979-2.084,0.979
		s-26.953,0-26.953,0s-1.531,0.735-1.531,1.532c0,0.796,0,6.677,0,6.677s-0.062,0.98,2.756,0.98c2.816,0,33.324,0,33.324,0
		s4.143-0.613,2.99,2.082c-1.152,2.696-5.318,6.371-14.996,6.371c-9.68,0-38.348,0-38.348,0S3.07,52.958,3.07,49.528z"/>
	<linearGradient id="SVGID_1_" gradientUnits="userSpaceOnUse" x1="43.6357" y1="53.8711" x2="13.2832" y2="1.299">
		<stop  offset="0" style="stop-color:#DADADA"/>
		<stop  offset="0.1742" style="stop-color:#D7D7D7"/>
		<stop  offset="0.3567" style="stop-color:#CDCDCD"/>
		<stop  offset="0.5429" style="stop-color:#BDBDBC"/>
		<stop  offset="0.7319" style="stop-color:#A5A5A4"/>
		<stop  offset="0.921" style="stop-color:#858585"/>
		<stop  offset="1" style="stop-color:#757474"/>
	</linearGradient>
	<path fill="url(#SVGID_1_)" stroke="#FFFFFF" stroke-width="0.75" stroke-miterlimit="10" d="M1.404,46.528V10.752
		c0,0-0.245-4.047,3.676-4.047s36.51,0,36.51,0s14.58-0.363,16.785,6.13c0,0,1.838,2.205-3.676,2.205c-5.512,0-32.957,0-32.957,0
		s-2.021,0.123-2.021,2.021c0,1.899,0,5.82,0,5.82s-0.123,1.562,1.562,1.562c1.684,0,26.801,0,26.801,0s2.084-0.214,2.084,1.623
		c0,1.838,0,5.146,0,5.146s-0.369,0.979-2.084,0.979s-26.955,0-26.955,0s-1.531,0.735-1.531,1.532c0,0.796,0,6.677,0,6.677
		s-0.061,0.98,2.758,0.98c2.816,0,33.324,0,33.324,0s4.143-0.613,2.99,2.082c-1.152,2.696-5.318,6.371-14.996,6.371
		c-9.68,0-38.349,0-38.349,0S1.404,49.958,1.404,46.528z"/>
</g>
</svg>
