<?xml version="1.0" encoding="utf-8"?>
<!-- Generator: Adobe Illustrator 16.0.0, SVG Export Plug-In . SVG Version: 6.00 Build 0)  -->
<!DOCTYPE svg PUBLIC "-//W3C//DTD SVG 1.1//EN" "http://www.w3.org/Graphics/SVG/1.1/DTD/svg11.dtd">
<svg version="1.1" id="Слой_1" xmlns="http://www.w3.org/2000/svg" xmlns:xlink="http://www.w3.org/1999/xlink" x="0px" y="0px"
	 width="61.538px" height="61.538px" viewBox="0 0 61.538 61.538" enable-background="new 0 0 61.538 61.538" xml:space="preserve">
<g>
	<path fill="#525251" d="M13.116,52.308c0,0-9.801-0.244-10.781-9.434v-21.44c0,0-1.838-12.374,13.6-12.374s32.589,0,32.589,0
		s6.494-0.123,10.17,6.003c0,0,1.102,1.96-2.574,1.96s-29.771,0-29.771,0s-5.635,0.858-5.635,5.146s0,16.539,0,16.539
		s0.121,5.881,4.654,5.881s10.904,0,10.904,0s5.637-0.857,5.637-5.391s-0.123-4.164-2.574-4.164c-2.449,0-8.777,0-8.777,0
		s-2.004,0.244-2.004-2.084s0-4.411,0-4.411s-0.279-1.837,2.004-1.837c2.285,0,26.419,0,26.419,0s3.555,0.489,3.555,3.982
		c0,3.492,0,9.74,0,9.74s0.734,11.883-13.6,11.883H13.116z"/>
	<linearGradient id="SVGID_1_" gradientUnits="userSpaceOnUse" x1="1.4946" y1="27.624" x2="59.7646" y2="27.624">
		<stop  offset="0" style="stop-color:#DADADA"/>
		<stop  offset="0.1742" style="stop-color:#D7D7D7"/>
		<stop  offset="0.3567" style="stop-color:#CDCDCD"/>
		<stop  offset="0.5429" style="stop-color:#BDBDBC"/>
		<stop  offset="0.7319" style="stop-color:#A5A5A4"/>
		<stop  offset="0.921" style="stop-color:#858585"/>
		<stop  offset="1" style="stop-color:#757474"/>
	</linearGradient>
	<path fill="url(#SVGID_1_)" stroke="#FFFFFF" stroke-width="0.75" stroke-miterlimit="10" d="M12.344,49.248
		c0,0-9.801-0.244-10.781-9.434v-21.44c0,0-1.838-12.374,13.6-12.374s32.59,0,32.59,0s6.492-0.123,10.168,6.003
		c0,0,1.104,1.96-2.572,1.96s-29.772,0-29.772,0s-5.636,0.858-5.636,5.146s0,16.539,0,16.539s0.122,5.881,4.655,5.881
		s10.905,0,10.905,0s5.635-0.857,5.635-5.391s-0.121-4.164-2.572-4.164s-8.778,0-8.778,0s-2.004,0.244-2.004-2.083
		c0-2.328,0-4.411,0-4.411s-0.28-1.837,2.004-1.837s26.42,0,26.42,0s3.553,0.489,3.553,3.981c0,3.493,0,9.741,0,9.741
		s0.734,11.883-13.6,11.883H12.344z"/>
</g>
</svg>
