<?xml version="1.0" encoding="utf-8"?>
<!-- Generator: Adobe Illustrator 16.0.0, SVG Export Plug-In . SVG Version: 6.00 Build 0)  -->
<!DOCTYPE svg PUBLIC "-//W3C//DTD SVG 1.1//EN" "http://www.w3.org/Graphics/SVG/1.1/DTD/svg11.dtd">
<svg version="1.1" id="Слой_1" xmlns="http://www.w3.org/2000/svg" xmlns:xlink="http://www.w3.org/1999/xlink" x="0px" y="0px"
	 width="206.33px" height="61.538px" viewBox="0 0 206.33 61.538" enable-background="new 0 0 206.33 61.538" xml:space="preserve">
<g>
	<path fill="#525251" d="M68.567,11.967c0,0,0-3.94,3.941-3.94s12.823,0,12.823,0s2.127-0.625,2.127,1.971s0,31.495,0,31.495
		s-0.251,2.127,2.252,2.127c2.502,0,34.529,0,34.529,0s2.876-0.75,2.001,1.752C125.365,47.874,121.488,52,111.729,52
		s-39.407,0-39.407,0s-3.44-0.749-3.44-3.439C68.881,45.872,68.567,11.967,68.567,11.967z"/>
	<linearGradient id="SVGID_1_" gradientUnits="userSpaceOnUse" x1="65.7515" y1="27.1924" x2="122.7144" y2="27.1924">
		<stop  offset="0" style="stop-color:#DADADA"/>
		<stop  offset="0.1742" style="stop-color:#D7D7D7"/>
		<stop  offset="0.3567" style="stop-color:#CDCDCD"/>
		<stop  offset="0.5429" style="stop-color:#BDBDBC"/>
		<stop  offset="0.7319" style="stop-color:#A5A5A4"/>
		<stop  offset="0.921" style="stop-color:#858585"/>
		<stop  offset="1" style="stop-color:#757474"/>
	</linearGradient>
	<path fill="url(#SVGID_1_)" stroke="#FFFFFF" stroke-width="0.7542" stroke-miterlimit="10" d="M65.751,9.452
		c0,0,0-3.881,3.882-3.881c3.881,0,12.63,0,12.63,0s2.093-0.615,2.093,1.94s0,31.019,0,31.019s-0.246,2.095,2.218,2.095
		c2.466,0,34.006,0,34.006,0s2.834-0.739,1.972,1.726c-0.861,2.463-4.683,6.529-14.293,6.529c-9.611,0-38.811,0-38.811,0
		s-3.389-0.739-3.389-3.389C66.059,42.842,65.751,9.452,65.751,9.452z"/>
</g>
<g>
	<path fill="#525251" d="M14.17,51.812c0,0-9.801-0.245-10.781-9.434v-21.44c0,0-1.838-12.374,13.6-12.374s32.59,0,32.59,0
		s6.494-0.123,10.17,6.003c0,0,1.102,1.96-2.574,1.96s-29.771,0-29.771,0s-5.635,0.858-5.635,5.146s0,16.539,0,16.539
		s0.121,5.881,4.654,5.881s10.904,0,10.904,0s5.637-0.857,5.637-5.391s-0.123-4.165-2.574-4.165c-2.449,0-8.777,0-8.777,0
		s-2.004,0.245-2.004-2.083s0-4.411,0-4.411s-0.279-1.837,2.004-1.837c2.285,0,26.42,0,26.42,0s3.555,0.489,3.555,3.981
		s0,9.74,0,9.74s0.734,11.884-13.6,11.884H14.17z"/>
	<linearGradient id="SVGID_2_" gradientUnits="userSpaceOnUse" x1="2.5488" y1="27.1274" x2="60.8193" y2="27.1274">
		<stop  offset="0" style="stop-color:#DADADA"/>
		<stop  offset="0.1742" style="stop-color:#D7D7D7"/>
		<stop  offset="0.3567" style="stop-color:#CDCDCD"/>
		<stop  offset="0.5429" style="stop-color:#BDBDBC"/>
		<stop  offset="0.7319" style="stop-color:#A5A5A4"/>
		<stop  offset="0.921" style="stop-color:#858585"/>
		<stop  offset="1" style="stop-color:#757474"/>
	</linearGradient>
	<path fill="url(#SVGID_2_)" stroke="#FFFFFF" stroke-width="0.75" stroke-miterlimit="10" d="M13.398,48.751
		c0,0-9.801-0.245-10.781-9.434v-21.44c0,0-1.838-12.374,13.6-12.374s32.59,0,32.59,0s6.493-0.123,10.169,6.003
		c0,0,1.103,1.96-2.573,1.96s-29.771,0-29.771,0s-5.636,0.858-5.636,5.146s0,16.539,0,16.539s0.122,5.881,4.655,5.881
		s10.904,0,10.904,0s5.636-0.857,5.636-5.391s-0.122-4.165-2.573-4.165c-2.45,0-8.777,0-8.777,0s-2.004,0.245-2.004-2.083
		s0-4.411,0-4.411s-0.28-1.837,2.004-1.837s26.42,0,26.42,0s3.554,0.489,3.554,3.981s0,9.74,0,9.74s0.734,11.884-13.6,11.884H13.398
		z"/>
</g>
<g>
	<path fill="#525251" d="M202.976,47.006l-18.221-36.615c-1.875-3.918-4.6-3.065-4.6-3.065h-25.545c-4.77,0-5.621,2.896-5.621,2.896
		l-18.393,36.785c-2.215,4.77,3.576,5.279,3.576,5.279s9.537,0.004,12.092,0.004s3.066-1.536,3.066-1.536s2.215-3.917,3.064-5.79
		c0.852-1.873,2.896-1.873,2.896-1.873s19.926,0,22.65,0s3.064,1.361,3.064,1.361l3.066,5.961c1.021,2.044,2.725,1.873,2.725,1.873
		h12.432C206.042,52.286,202.976,47.006,202.976,47.006z M172.494,34.575h-11.24c0,0-2.896,0.682-2.385-2.726l6.301-12.433
		c0,0,1.873-2.554,3.236,0l6.301,12.433C174.707,31.849,175.898,34.575,172.494,34.575z"/>
	<linearGradient id="SVGID_3_" gradientUnits="userSpaceOnUse" x1="127.4819" y1="27.4976" x2="199.3286" y2="27.4976">
		<stop  offset="0" style="stop-color:#DADADA"/>
		<stop  offset="0.1742" style="stop-color:#D7D7D7"/>
		<stop  offset="0.3567" style="stop-color:#CDCDCD"/>
		<stop  offset="0.5429" style="stop-color:#BDBDBC"/>
		<stop  offset="0.7319" style="stop-color:#A5A5A4"/>
		<stop  offset="0.921" style="stop-color:#858585"/>
		<stop  offset="1" style="stop-color:#757474"/>
	</linearGradient>
	<path fill="url(#SVGID_3_)" stroke="#FFFFFF" stroke-width="0.75" stroke-miterlimit="10" d="M198.658,44.331L180.861,8.575
		c-1.828-3.826-4.49-2.994-4.49-2.994h-24.945c-4.658,0-5.488,2.828-5.488,2.828l-17.963,35.922
		c-2.16,4.657,3.494,5.156,3.494,5.156s9.312,0.004,11.809,0.004c2.494,0,2.992-1.501,2.992-1.501s2.162-3.825,2.994-5.654
		s2.828-1.829,2.828-1.829s19.459,0,22.119,0s2.992,1.33,2.992,1.33l2.994,5.82c0.998,1.996,2.66,1.83,2.66,1.83h12.141
		C201.65,49.487,198.658,44.331,198.658,44.331z M168.888,32.19h-10.977c0,0-2.828,0.665-2.328-2.66l6.152-12.141
		c0,0,1.83-2.494,3.16,0l6.152,12.141C171.048,29.53,172.212,32.19,168.888,32.19z"/>
</g>
</svg>
