<?xml version="1.0" encoding="utf-8"?>
<!-- Generator: Adobe Illustrator 16.0.0, SVG Export Plug-In . SVG Version: 6.00 Build 0)  -->
<!DOCTYPE svg PUBLIC "-//W3C//DTD SVG 1.1//EN" "http://www.w3.org/Graphics/SVG/1.1/DTD/svg11.dtd">
<svg version="1.1" id="Слой_1" xmlns="http://www.w3.org/2000/svg" xmlns:xlink="http://www.w3.org/1999/xlink" x="0px" y="0px"
	 width="196.604px" height="61.538px" viewBox="0 0 196.604 61.538" enable-background="new 0 0 196.604 61.538"
	 xml:space="preserve">
<g>
	<path fill="#525251" d="M68.828,12.418c0,0,0-3.94,3.941-3.94c3.941,0,12.822,0,12.822,0s2.127-0.625,2.127,1.971
		s0,31.495,0,31.495s-0.25,2.127,2.252,2.127s34.529,0,34.529,0s2.877-0.751,2.002,1.751c-0.877,2.502-4.754,6.63-14.512,6.63
		c-9.76,0-39.408,0-39.408,0s-3.439-0.749-3.439-3.44C69.143,46.322,68.828,12.418,68.828,12.418z"/>
	<linearGradient id="SVGID_1_" gradientUnits="userSpaceOnUse" x1="66.0117" y1="27.6426" x2="122.9751" y2="27.6426">
		<stop  offset="0" style="stop-color:#DADADA"/>
		<stop  offset="0.1742" style="stop-color:#D7D7D7"/>
		<stop  offset="0.3567" style="stop-color:#CDCDCD"/>
		<stop  offset="0.5429" style="stop-color:#BDBDBC"/>
		<stop  offset="0.7319" style="stop-color:#A5A5A4"/>
		<stop  offset="0.921" style="stop-color:#858585"/>
		<stop  offset="1" style="stop-color:#757474"/>
	</linearGradient>
	<path fill="url(#SVGID_1_)" stroke="#FFFFFF" stroke-width="0.7542" stroke-miterlimit="10" d="M66.012,9.903
		c0,0,0-3.882,3.883-3.882c3.88,0,12.628,0,12.628,0s2.094-0.615,2.094,1.941c0,2.556,0,31.018,0,31.018s-0.246,2.096,2.217,2.096
		c2.467,0,34.006,0,34.006,0s2.834-0.74,1.973,1.725c-0.861,2.463-4.684,6.529-14.293,6.529c-9.611,0-38.81,0-38.81,0
		s-3.389-0.738-3.389-3.389C66.32,43.292,66.012,9.903,66.012,9.903z"/>
</g>
<g>
	<path fill="#525251" d="M13.431,52.264c0,0-9.801-0.246-10.781-9.434V21.389c0,0-1.838-12.373,13.6-12.373
		c15.438,0,32.59,0,32.59,0s6.494-0.123,10.17,6.002c0,0,1.102,1.961-2.574,1.961s-29.772,0-29.772,0s-5.635,0.857-5.635,5.146
		c0,4.287,0,16.539,0,16.539s0.121,5.881,4.654,5.881s10.905,0,10.905,0s5.637-0.857,5.637-5.391s-0.123-4.166-2.574-4.166
		c-2.449,0-8.777,0-8.777,0s-2.004,0.246-2.004-2.082s0-4.412,0-4.412s-0.279-1.836,2.004-1.836c2.285,0,26.42,0,26.42,0
		s3.555,0.488,3.555,3.98s0,9.74,0,9.74s0.734,11.885-13.6,11.885H13.431z"/>
	<linearGradient id="SVGID_2_" gradientUnits="userSpaceOnUse" x1="1.8096" y1="27.5796" x2="60.0806" y2="27.5796">
		<stop  offset="0" style="stop-color:#DADADA"/>
		<stop  offset="0.1742" style="stop-color:#D7D7D7"/>
		<stop  offset="0.3567" style="stop-color:#CDCDCD"/>
		<stop  offset="0.5429" style="stop-color:#BDBDBC"/>
		<stop  offset="0.7319" style="stop-color:#A5A5A4"/>
		<stop  offset="0.921" style="stop-color:#858585"/>
		<stop  offset="1" style="stop-color:#757474"/>
	</linearGradient>
	<path fill="url(#SVGID_2_)" stroke="#FFFFFF" stroke-width="0.75" stroke-miterlimit="10" d="M12.659,49.204
		c0,0-9.801-0.246-10.781-9.434V18.329c0,0-1.838-12.373,13.6-12.373c15.437,0,32.589,0,32.589,0s6.494-0.123,10.17,6.002
		c0,0,1.102,1.961-2.574,1.961s-29.771,0-29.771,0s-5.636,0.857-5.636,5.146c0,4.287,0,16.539,0,16.539s0.122,5.881,4.655,5.881
		s10.904,0,10.904,0s5.637-0.857,5.637-5.391s-0.123-4.166-2.574-4.166c-2.449,0-8.777,0-8.777,0s-2.004,0.246-2.004-2.082
		s0-4.412,0-4.412s-0.28-1.836,2.004-1.836c2.285,0,26.419,0,26.419,0s3.555,0.488,3.555,3.98s0,9.74,0,9.74
		s0.734,11.885-13.6,11.885H12.659z"/>
</g>
<g>
	<path fill="#525251" d="M193.685,34.824c0.146-4.732-2.811-6.147-2.811-6.147V20.33c0-13.162-14.346-12.127-14.346-12.127
		s-34.016,0-39.191,0s-4.584,3.846-4.584,3.846v37.12c0,3.697,3.697,3.401,3.697,3.401h36.381c0,0,11.979,0.592,17.008-3.401
		C194.277,45.915,193.685,34.824,193.685,34.824z M151.683,17.667c0,0,0.443-1.184,2.957-1.184c2.516,0,11.98,0,11.98,0
		s4.584,0.444,5.324,5.324c0,0,2.219,4.438-6.508,4.438h-11.832c0,0-1.922,0.147-1.922-1.479V17.667z M163.958,44.732h-10.354
		c0,0-1.922-0.296-1.922-1.627v-7.247c0,0-0.297-1.183,2.365-1.183s16.861,0,16.861,0s4.141,0.295,3.697,4.215
		C174.607,38.89,175.05,44.732,163.958,44.732z"/>
	<linearGradient id="SVGID_3_" gradientUnits="userSpaceOnUse" x1="129.6841" y1="27.8857" x2="189.9019" y2="27.8857">
		<stop  offset="0" style="stop-color:#DADADA"/>
		<stop  offset="0.1742" style="stop-color:#D7D7D7"/>
		<stop  offset="0.3567" style="stop-color:#CDCDCD"/>
		<stop  offset="0.5429" style="stop-color:#BDBDBC"/>
		<stop  offset="0.7319" style="stop-color:#A5A5A4"/>
		<stop  offset="0.921" style="stop-color:#858585"/>
		<stop  offset="1" style="stop-color:#757474"/>
	</linearGradient>
	<path fill="url(#SVGID_3_)" stroke="#FFFFFF" stroke-width="0.75" stroke-miterlimit="10" d="M189.876,32.261
		c0.145-4.674-2.775-6.07-2.775-6.07v-8.242c0-12.998-14.166-11.975-14.166-11.975s-33.592,0-38.703,0s-4.527,3.797-4.527,3.797
		v36.657c0,3.651,3.65,3.358,3.65,3.358h35.928c0,0,11.83,0.584,16.795-3.358C190.458,43.214,189.876,32.261,189.876,32.261z
		 M148.398,15.32c0,0,0.439-1.168,2.92-1.168c2.484,0,11.832,0,11.832,0s4.527,0.438,5.256,5.258c0,0,2.191,4.381-6.426,4.381
		h-11.684c0,0-1.898,0.146-1.898-1.46V15.32z M160.519,42.046h-10.223c0,0-1.898-0.292-1.898-1.605v-7.157
		c0,0-0.291-1.169,2.336-1.169c2.629,0,16.65,0,16.65,0s4.088,0.293,3.65,4.162C171.035,36.277,171.472,42.046,160.519,42.046z"/>
</g>
</svg>
