<?xml version="1.0" encoding="utf-8"?>
<!-- Generator: Adobe Illustrator 16.0.0, SVG Export Plug-In . SVG Version: 6.00 Build 0)  -->
<!DOCTYPE svg PUBLIC "-//W3C//DTD SVG 1.1//EN" "http://www.w3.org/Graphics/SVG/1.1/DTD/svg11.dtd">
<svg version="1.1" id="Слой_1" xmlns="http://www.w3.org/2000/svg" xmlns:xlink="http://www.w3.org/1999/xlink" x="0px" y="0px"
	 width="188.924px" height="61.538px" viewBox="0 0 188.924 61.538" enable-background="new 0 0 188.924 61.538"
	 xml:space="preserve">
<g>
	<path fill="#525251" d="M130.457,48.535V12.759c0,0-0.244-4.047,3.676-4.047c3.922,0,36.51,0,36.51,0s14.58-0.363,16.785,6.131
		c0,0,1.838,2.205-3.676,2.205c-5.512,0-32.957,0-32.957,0s-2.021,0.123-2.021,2.021s0,5.82,0,5.82s-0.121,1.561,1.562,1.561
		s26.801,0,26.801,0s2.084-0.213,2.084,1.623c0,1.838,0,5.146,0,5.146s-0.369,0.98-2.084,0.98s-26.953,0-26.953,0
		s-1.531,0.734-1.531,1.531s0,6.678,0,6.678s-0.062,0.98,2.756,0.98c2.816,0,33.324,0,33.324,0s4.143-0.613,2.99,2.082
		s-5.318,6.371-14.996,6.371c-9.68,0-38.348,0-38.348,0S130.457,51.966,130.457,48.535z"/>
	<linearGradient id="SVGID_1_" gradientUnits="userSpaceOnUse" x1="171.022" y1="52.8784" x2="140.6689" y2="0.3054">
		<stop  offset="0" style="stop-color:#DADADA"/>
		<stop  offset="0.1742" style="stop-color:#D7D7D7"/>
		<stop  offset="0.3567" style="stop-color:#CDCDCD"/>
		<stop  offset="0.5429" style="stop-color:#BDBDBC"/>
		<stop  offset="0.7319" style="stop-color:#A5A5A4"/>
		<stop  offset="0.921" style="stop-color:#858585"/>
		<stop  offset="1" style="stop-color:#757474"/>
	</linearGradient>
	<path fill="url(#SVGID_1_)" stroke="#FFFFFF" stroke-width="0.75" stroke-miterlimit="10" d="M128.791,45.535V9.759
		c0,0-0.244-4.047,3.676-4.047c3.922,0,36.51,0,36.51,0s14.58-0.363,16.785,6.131c0,0,1.838,2.205-3.676,2.205
		c-5.512,0-32.957,0-32.957,0s-2.021,0.123-2.021,2.021s0,5.82,0,5.82s-0.123,1.561,1.562,1.561c1.684,0,26.801,0,26.801,0
		s2.084-0.213,2.084,1.623c0,1.838,0,5.146,0,5.146s-0.369,0.98-2.084,0.98s-26.955,0-26.955,0s-1.531,0.734-1.531,1.531
		s0,6.678,0,6.678s-0.061,0.98,2.758,0.98c2.816,0,33.324,0,33.324,0s4.143-0.613,2.99,2.082s-5.318,6.371-14.996,6.371
		c-9.68,0-38.348,0-38.348,0S128.791,48.966,128.791,45.535z"/>
</g>
<g>
	<path fill="#525251" d="M68.435,12.173c0,0,0-3.94,3.941-3.94s12.824,0,12.824,0s2.127-0.625,2.127,1.971s0,31.495,0,31.495
		s-0.252,2.127,2.252,2.127c2.502,0,34.529,0,34.529,0s2.875-0.75,2,1.752s-4.752,6.629-14.512,6.629c-9.758,0-39.406,0-39.406,0
		s-3.441-0.749-3.441-3.439C68.75,46.078,68.435,12.173,68.435,12.173z"/>
	<linearGradient id="SVGID_2_" gradientUnits="userSpaceOnUse" x1="65.6206" y1="27.3984" x2="122.5835" y2="27.3984">
		<stop  offset="0" style="stop-color:#DADADA"/>
		<stop  offset="0.1742" style="stop-color:#D7D7D7"/>
		<stop  offset="0.3567" style="stop-color:#CDCDCD"/>
		<stop  offset="0.5429" style="stop-color:#BDBDBC"/>
		<stop  offset="0.7319" style="stop-color:#A5A5A4"/>
		<stop  offset="0.921" style="stop-color:#858585"/>
		<stop  offset="1" style="stop-color:#757474"/>
	</linearGradient>
	<path fill="url(#SVGID_2_)" stroke="#FFFFFF" stroke-width="0.7542" stroke-miterlimit="10" d="M65.621,9.658
		c0,0,0-3.881,3.881-3.881s12.631,0,12.631,0s2.092-0.615,2.092,1.94s0,31.019,0,31.019s-0.246,2.095,2.219,2.095s34.006,0,34.006,0
		s2.834-0.739,1.971,1.726c-0.861,2.463-4.682,6.529-14.293,6.529s-38.811,0-38.811,0s-3.389-0.739-3.389-3.389
		C65.927,43.048,65.621,9.658,65.621,9.658z"/>
</g>
<g>
	<path fill="#525251" d="M13.039,52.018c0,0-9.801-0.245-10.781-9.434v-21.44c0,0-1.838-12.374,13.6-12.374s32.589,0,32.589,0
		s6.494-0.123,10.17,6.003c0,0,1.102,1.96-2.574,1.96s-29.771,0-29.771,0s-5.635,0.858-5.635,5.146s0,16.539,0,16.539
		s0.121,5.881,4.654,5.881s10.904,0,10.904,0s5.636-0.857,5.636-5.391s-0.123-4.165-2.574-4.165c-2.449,0-8.777,0-8.777,0
		s-2.004,0.245-2.004-2.083s0-4.411,0-4.411s-0.279-1.837,2.004-1.837c2.285,0,26.419,0,26.419,0s3.555,0.489,3.555,3.981
		s0,9.74,0,9.74s0.734,11.884-13.6,11.884H13.039z"/>
	<linearGradient id="SVGID_3_" gradientUnits="userSpaceOnUse" x1="1.4175" y1="27.3335" x2="59.6875" y2="27.3335">
		<stop  offset="0" style="stop-color:#DADADA"/>
		<stop  offset="0.1742" style="stop-color:#D7D7D7"/>
		<stop  offset="0.3567" style="stop-color:#CDCDCD"/>
		<stop  offset="0.5429" style="stop-color:#BDBDBC"/>
		<stop  offset="0.7319" style="stop-color:#A5A5A4"/>
		<stop  offset="0.921" style="stop-color:#858585"/>
		<stop  offset="1" style="stop-color:#757474"/>
	</linearGradient>
	<path fill="url(#SVGID_3_)" stroke="#FFFFFF" stroke-width="0.75" stroke-miterlimit="10" d="M12.267,48.958
		c0,0-9.801-0.245-10.781-9.434v-21.44c0,0-1.838-12.374,13.6-12.374s32.59,0,32.59,0s6.492-0.123,10.168,6.003
		c0,0,1.104,1.96-2.572,1.96s-29.772,0-29.772,0s-5.636,0.858-5.636,5.146s0,16.539,0,16.539s0.122,5.881,4.655,5.881
		s10.904,0,10.904,0s5.635-0.857,5.635-5.391s-0.121-4.165-2.573-4.165c-2.45,0-8.777,0-8.777,0s-2.004,0.245-2.004-2.083
		s0-4.411,0-4.411s-0.28-1.837,2.004-1.837s26.42,0,26.42,0s3.553,0.489,3.553,3.981s0,9.74,0,9.74s0.734,11.884-13.6,11.884H12.267
		z"/>
</g>
</svg>
