<?xml version="1.0" encoding="utf-8"?>
<!-- Generator: Adobe Illustrator 16.0.0, SVG Export Plug-In . SVG Version: 6.00 Build 0)  -->
<!DOCTYPE svg PUBLIC "-//W3C//DTD SVG 1.1//EN" "http://www.w3.org/Graphics/SVG/1.1/DTD/svg11.dtd">
<svg version="1.1" id="Слой_1" xmlns="http://www.w3.org/2000/svg" xmlns:xlink="http://www.w3.org/1999/xlink" x="0px" y="0px"
	 width="188.924px" height="61.538px" viewBox="0 0 188.924 61.538" enable-background="new 0 0 188.924 61.538"
	 xml:space="preserve">
<g>
	<path fill="#525251" d="M69.61,11.833c0,0,0-3.941,3.942-3.941c3.941,0,12.822,0,12.822,0s2.127-0.625,2.127,1.971
		s0,31.496,0,31.496s-0.25,2.127,2.252,2.127s34.529,0,34.529,0s2.877-0.751,2.002,1.751c-0.877,2.502-4.754,6.63-14.512,6.63
		c-9.76,0-39.408,0-39.408,0s-3.44-0.75-3.44-3.44C69.925,45.737,69.61,11.833,69.61,11.833z"/>
	<linearGradient id="SVGID_1_" gradientUnits="userSpaceOnUse" x1="66.7949" y1="27.0576" x2="123.7583" y2="27.0576">
		<stop  offset="0" style="stop-color:#DADADA"/>
		<stop  offset="0.1742" style="stop-color:#D7D7D7"/>
		<stop  offset="0.3567" style="stop-color:#CDCDCD"/>
		<stop  offset="0.5429" style="stop-color:#BDBDBC"/>
		<stop  offset="0.7319" style="stop-color:#A5A5A4"/>
		<stop  offset="0.921" style="stop-color:#858585"/>
		<stop  offset="1" style="stop-color:#757474"/>
	</linearGradient>
	<path fill="url(#SVGID_1_)" stroke="#FFFFFF" stroke-width="0.7542" stroke-miterlimit="10" d="M66.795,9.317
		c0,0,0-3.881,3.882-3.881c3.881,0,12.629,0,12.629,0S85.4,4.82,85.4,7.376s0,31.019,0,31.019s-0.246,2.095,2.217,2.095
		c2.467,0,34.006,0,34.006,0s2.834-0.739,1.973,1.725c-0.861,2.463-4.684,6.53-14.293,6.53c-9.611,0-38.811,0-38.811,0
		s-3.389-0.739-3.389-3.389C67.103,42.708,66.795,9.317,66.795,9.317z"/>
</g>
<g>
	<path fill="#525251" d="M14.214,51.677c0,0-9.801-0.245-10.781-9.434v-21.44c0,0-1.838-12.374,13.6-12.374s32.59,0,32.59,0
		s6.494-0.123,10.17,6.003c0,0,1.102,1.96-2.574,1.96s-29.771,0-29.771,0s-5.635,0.858-5.635,5.146s0,16.539,0,16.539
		s0.121,5.881,4.654,5.881s10.904,0,10.904,0s5.637-0.857,5.637-5.391s-0.123-4.165-2.574-4.165c-2.449,0-8.777,0-8.777,0
		s-2.004,0.245-2.004-2.083s0-4.411,0-4.411s-0.279-1.837,2.004-1.837c2.285,0,26.42,0,26.42,0s3.555,0.489,3.555,3.981
		s0,9.74,0,9.74s0.734,11.884-13.6,11.884H14.214z"/>
	<linearGradient id="SVGID_2_" gradientUnits="userSpaceOnUse" x1="2.5923" y1="26.9927" x2="60.8628" y2="26.9927">
		<stop  offset="0" style="stop-color:#DADADA"/>
		<stop  offset="0.1742" style="stop-color:#D7D7D7"/>
		<stop  offset="0.3567" style="stop-color:#CDCDCD"/>
		<stop  offset="0.5429" style="stop-color:#BDBDBC"/>
		<stop  offset="0.7319" style="stop-color:#A5A5A4"/>
		<stop  offset="0.921" style="stop-color:#858585"/>
		<stop  offset="1" style="stop-color:#757474"/>
	</linearGradient>
	<path fill="url(#SVGID_2_)" stroke="#FFFFFF" stroke-width="0.75" stroke-miterlimit="10" d="M13.441,48.617
		c0,0-9.801-0.245-10.781-9.434v-21.44c0,0-1.838-12.374,13.6-12.374s32.59,0,32.59,0s6.493-0.123,10.169,6.003
		c0,0,1.103,1.96-2.573,1.96s-29.771,0-29.771,0s-5.636,0.858-5.636,5.146s0,16.539,0,16.539s0.122,5.881,4.655,5.881
		s10.904,0,10.904,0s5.636-0.857,5.636-5.391s-0.122-4.165-2.573-4.165c-2.45,0-8.777,0-8.777,0s-2.004,0.245-2.004-2.083
		s0-4.411,0-4.411s-0.28-1.837,2.004-1.837s26.42,0,26.42,0s3.554,0.489,3.554,3.981s0,9.74,0,9.74s0.734,11.884-13.6,11.884H13.441
		z"/>
</g>
<g>
	<path fill="#525251" d="M155.468,16.671l27.414-0.102c0,0,3.527-0.013,2.557-2.093c-0.969-2.081-4.025-4.795-10.92-5.25
		c-6.896-0.455-24.853-0.549-24.853-0.549s-17.317-0.737-17.282,8.722s-0.928,9.302,3.252,12.333
		c4.181,3.031,18.615,4.901,18.615,4.901s13.152,1.394,13.32,3.637c0.169,2.244-0.621,5.293-4.146,5.627
		c-3.526,0.334-28.537,0.106-28.537,0.106s-6.096-0.939-3.193,3.218c2.9,4.157,7.068,3.981,10.115,4.291
		c3.047,0.309,27.096,0.541,27.096,0.541s16.842,2.022,17.756-10.647c0,0,3.006-10.752-7.582-12.637l-25.027-4.717
		c0,0-4.65-0.303-3.703-4.154C150.349,19.897,150.658,16.689,155.468,16.671z"/>
	
		<linearGradient id="SVGID_3_" gradientUnits="userSpaceOnUse" x1="128.6646" y1="28.457" x2="184.8354" y2="28.457" gradientTransform="matrix(1 -0.0037 0.0037 1 0.625 -0.7476)">
		<stop  offset="0" style="stop-color:#DADADA"/>
		<stop  offset="0.1742" style="stop-color:#D7D7D7"/>
		<stop  offset="0.3567" style="stop-color:#CDCDCD"/>
		<stop  offset="0.5429" style="stop-color:#BDBDBC"/>
		<stop  offset="0.7319" style="stop-color:#A5A5A4"/>
		<stop  offset="0.921" style="stop-color:#858585"/>
		<stop  offset="1" style="stop-color:#757474"/>
	</linearGradient>
	<path fill="url(#SVGID_3_)" stroke="#FFFFFF" stroke-width="0.75" stroke-miterlimit="10" d="M154.006,13.376l27.415-0.102
		c0,0,3.526-0.013,2.557-2.093c-0.97-2.081-4.025-4.794-10.921-5.25c-6.896-0.455-24.853-0.549-24.853-0.549
		s-17.316-0.737-17.281,8.722s-0.928,9.302,3.252,12.333c4.18,3.031,18.615,4.901,18.615,4.901s13.151,1.394,13.32,3.637
		c0.168,2.244-0.621,5.293-4.147,5.627c-3.526,0.334-28.536,0.106-28.536,0.106s-6.096-0.939-3.194,3.218
		c2.901,4.157,7.068,3.981,10.116,4.291c3.047,0.309,27.096,0.54,27.096,0.54s16.841,2.022,17.756-10.647
		c0,0,3.006-10.752-7.582-12.637l-25.027-4.717c0,0-4.65-0.303-3.703-4.154C148.888,16.602,149.197,13.395,154.006,13.376z"/>
</g>
</svg>
