<?xml version="1.0" encoding="utf-8"?>
<!-- Generator: Adobe Illustrator 16.0.0, SVG Export Plug-In . SVG Version: 6.00 Build 0)  -->
<!DOCTYPE svg PUBLIC "-//W3C//DTD SVG 1.1//EN" "http://www.w3.org/Graphics/SVG/1.1/DTD/svg11.dtd">
<svg version="1.1" id="Слой_1" xmlns="http://www.w3.org/2000/svg" xmlns:xlink="http://www.w3.org/1999/xlink" x="0px" y="0px"
	 width="76.103px" height="61.538px" viewBox="0 0 76.103 61.538" enable-background="new 0 0 76.103 61.538" xml:space="preserve">
<g>
	<path fill="#525251" d="M25.089,27.754l14.138,12.511l13.138-13.137v24.523h19.893V11.364c0,0-0.625-3.003-2.502-3.003
		s-11.762,0-11.762,0s-5.066-0.813-11.135,5.255c-6.068,6.067-7.883,7.882-7.883,7.882l-7.631-8.633c0,0-1.751-4.541-13.888-4.541
		h-9.26c0,0-2.502,0.537-2.502,3.79c0,3.253,0,40.538,0,40.538h19.269L25.089,27.754z"/>
	<linearGradient id="SVGID_1_" gradientUnits="userSpaceOnUse" x1="3.1958" y1="27.0498" x2="69.7578" y2="27.0498">
		<stop  offset="0" style="stop-color:#DADADA"/>
		<stop  offset="0.1742" style="stop-color:#D7D7D7"/>
		<stop  offset="0.3567" style="stop-color:#CDCDCD"/>
		<stop  offset="0.5429" style="stop-color:#BDBDBC"/>
		<stop  offset="0.7319" style="stop-color:#A5A5A4"/>
		<stop  offset="0.921" style="stop-color:#858585"/>
		<stop  offset="1" style="stop-color:#757474"/>
	</linearGradient>
	<path fill="url(#SVGID_1_)" stroke="#FFFFFF" stroke-width="0.75" stroke-miterlimit="10" d="M22.589,24.315l14.138,12.511
		l13.138-13.137v24.523h19.893V7.925c0,0-0.625-3.003-2.502-3.003s-11.762,0-11.762,0s-5.066-0.813-11.135,5.255
		c-6.069,6.067-7.883,7.882-7.883,7.882l-7.631-8.633c0,0-1.751-4.541-13.888-4.541h-9.26c0,0-2.502,0.537-2.502,3.79
		c0,3.253,0,40.538,0,40.538h19.269L22.589,24.315z"/>
</g>
</svg>
