<?xml version="1.0" encoding="utf-8"?>
<!-- Generator: Adobe Illustrator 16.0.0, SVG Export Plug-In . SVG Version: 6.00 Build 0)  -->
<!DOCTYPE svg PUBLIC "-//W3C//DTD SVG 1.1//EN" "http://www.w3.org/Graphics/SVG/1.1/DTD/svg11.dtd">
<svg version="1.1" id="Слой_1" xmlns="http://www.w3.org/2000/svg" xmlns:xlink="http://www.w3.org/1999/xlink" x="0px" y="0px"
	 width="80.271px" height="61.538px" viewBox="0 0 80.271 61.538" enable-background="new 0 0 80.271 61.538" xml:space="preserve">
<g>
	<path fill-rule="evenodd" clip-rule="evenodd" fill="#525251" d="M75.666,42.091C69.862,28.22,60.122,16.414,47.924,7.954
		c0,0-6.099-4.33-8.657-4.33c-2.559,0-8.658,4.33-8.658,4.33C18.41,16.414,8.671,28.22,2.865,42.091c0,0-1.868,4.525-1.868,6.789
		c0,0.197,0,0.492,0.099,0.688c0.099,0.296,0.197,0.493,0.394,0.688c1.574,1.576,6.001,3.543,6.001,3.543
		c9.739,4.328,20.462,6.787,31.776,6.787c11.313,0,22.037-2.459,31.775-6.787c0,0,4.428-1.967,6-3.543
		c0.197-0.195,0.297-0.392,0.395-0.688c0.1-0.196,0.1-0.491,0.1-0.688C77.537,46.616,75.666,42.091,75.666,42.091L75.666,42.091z
		 M74.978,48.583c-0.1,0.198-0.197,0.395-0.295,0.494c-1.182,1.278-4.526,2.755-4.526,2.755c-9.443,4.13-19.971,6.492-30.89,6.492
		c-10.92,0-21.447-2.361-30.892-6.492c0,0-3.345-1.478-4.525-2.755c-0.098-0.099-0.197-0.295-0.294-0.494
		c-0.099-0.195-0.099-0.294-0.099-0.589c0-1.673,1.476-5.018,1.476-5.018C10.54,29.498,19.985,17.988,31.79,9.725
		c0,0,5.313-3.64,7.478-3.64c2.164,0,7.476,3.64,7.476,3.64c11.805,8.264,21.25,19.773,26.858,33.252c0,0,1.475,3.345,1.475,5.018
		C75.076,48.289,75.076,48.388,74.978,48.583L74.978,48.583z"/>
	<path fill-rule="evenodd" clip-rule="evenodd" fill="#525251" d="M51.269,30.777V13.954l-12.001,7.183l-12.003-7.183v16.823
		l-10.526-6.295l-0.394,29.71c0.983,0.294,2.066,0.59,3.148,0.884l0.394-24.987l7.378,4.427V56.75
		c1.083,0.198,2.166,0.394,3.248,0.492V36.483l8.755,5.312l8.754-5.312v20.758c1.083-0.099,2.165-0.294,3.247-0.492V34.517
		l7.378-4.427l0.394,24.987c1.081-0.294,2.163-0.59,3.147-0.884l-0.393-29.71L51.269,30.777L51.269,30.777z M48.021,32.745
		l-8.754,5.312l-8.755-5.312V19.66l8.755,5.216l8.754-5.216V32.745L48.021,32.745z"/>
</g>
<linearGradient id="SVGID_1_" gradientUnits="userSpaceOnUse" x1="2.2466" y1="29.4326" x2="78.7847" y2="29.4326">
	<stop  offset="0" style="stop-color:#DADADA"/>
	<stop  offset="0.1742" style="stop-color:#D7D7D7"/>
	<stop  offset="0.3567" style="stop-color:#CDCDCD"/>
	<stop  offset="0.5429" style="stop-color:#BDBDBC"/>
	<stop  offset="0.7319" style="stop-color:#A5A5A4"/>
	<stop  offset="0.921" style="stop-color:#858585"/>
	<stop  offset="1" style="stop-color:#757474"/>
</linearGradient>
<path fill-rule="evenodd" clip-rule="evenodd" fill="url(#SVGID_1_)" stroke="#FFFFFF" stroke-width="0.3401" stroke-miterlimit="10" d="
	M76.916,39.419C71.11,25.546,61.372,13.742,49.173,5.281c0,0-6.1-4.329-8.657-4.329c-2.558,0-8.657,4.329-8.657,4.329
	c-12.2,8.46-21.939,20.265-27.744,34.138c0,0-1.868,4.525-1.868,6.787c0,0.197,0,0.494,0.098,0.689
	c0.099,0.295,0.198,0.492,0.394,0.689c1.574,1.574,6.001,3.541,6.001,3.541c9.74,4.329,20.463,6.789,31.776,6.789
	c11.313,0,22.036-2.46,31.775-6.789c0,0,4.427-1.967,6.001-3.541c0.197-0.197,0.295-0.394,0.395-0.689
	c0.098-0.195,0.098-0.492,0.098-0.689C78.785,43.944,76.916,39.419,76.916,39.419L76.916,39.419z M76.226,45.911
	c-0.098,0.198-0.195,0.394-0.295,0.492c-1.18,1.279-4.525,2.755-4.525,2.755c-9.444,4.132-19.971,6.494-30.891,6.494
	c-10.919,0-21.446-2.362-30.891-6.494c0,0-3.346-1.476-4.525-2.755c-0.098-0.098-0.197-0.294-0.295-0.492
	c-0.099-0.197-0.099-0.295-0.099-0.59c0-1.673,1.476-5.016,1.476-5.016c5.607-13.479,15.052-24.989,26.856-33.252
	c0,0,5.312-3.64,7.478-3.64c2.165,0,7.476,3.64,7.476,3.64c11.806,8.264,21.25,19.774,26.857,33.252c0,0,1.477,3.343,1.477,5.016
	C76.326,45.616,76.326,45.714,76.226,45.911L76.226,45.911z"/>
<linearGradient id="SVGID_2_" gradientUnits="userSpaceOnUse" x1="17.5933" y1="32.9253" x2="63.437" y2="32.9253">
	<stop  offset="0" style="stop-color:#DADADA"/>
	<stop  offset="0.1742" style="stop-color:#D7D7D7"/>
	<stop  offset="0.3567" style="stop-color:#CDCDCD"/>
	<stop  offset="0.5429" style="stop-color:#BDBDBC"/>
	<stop  offset="0.7319" style="stop-color:#A5A5A4"/>
	<stop  offset="0.921" style="stop-color:#858585"/>
	<stop  offset="1" style="stop-color:#757474"/>
</linearGradient>
<path fill-rule="evenodd" clip-rule="evenodd" fill="url(#SVGID_2_)" stroke="#FFFFFF" stroke-width="0.3401" stroke-miterlimit="10" d="
	M52.517,28.105V11.281l-12.001,7.183l-12.003-7.183v16.824l-10.526-6.297L17.593,51.52c0.984,0.294,2.066,0.589,3.148,0.884
	l0.394-24.988l7.377,4.428v22.233c1.083,0.197,2.166,0.394,3.248,0.492V33.811l8.755,5.311l8.755-5.311v20.758
	c1.083-0.099,2.165-0.295,3.247-0.492V31.844l7.379-4.428l0.393,24.988c1.083-0.295,2.165-0.59,3.148-0.884l-0.393-29.712
	L52.517,28.105L52.517,28.105z M49.271,30.071l-8.755,5.313l-8.755-5.313V16.988l8.755,5.214l8.755-5.214V30.071L49.271,30.071z"/>
</svg>
