<?xml version="1.0" encoding="utf-8"?>
<!-- Generator: Adobe Illustrator 16.0.0, SVG Export Plug-In . SVG Version: 6.00 Build 0)  -->
<!DOCTYPE svg PUBLIC "-//W3C//DTD SVG 1.1//EN" "http://www.w3.org/Graphics/SVG/1.1/DTD/svg11.dtd">
<svg version="1.1" id="Слой_1" xmlns="http://www.w3.org/2000/svg" xmlns:xlink="http://www.w3.org/1999/xlink" x="0px" y="0px"
	 width="61.538px" height="61.538px" viewBox="0 0 61.538 61.538" enable-background="new 0 0 61.538 61.538" xml:space="preserve">
<g>
	<path fill="#525251" d="M28.698,16.916l27.415-0.102c0,0,3.527-0.013,2.557-2.093c-0.969-2.081-4.025-4.795-10.92-5.25
		c-6.896-0.455-24.853-0.549-24.853-0.549S5.58,8.184,5.615,17.643s-0.927,9.302,3.252,12.333c4.18,3.031,18.615,4.901,18.615,4.901
		s13.151,1.394,13.32,3.637c0.168,2.244-0.622,5.293-4.147,5.627c-3.526,0.334-28.537,0.106-28.537,0.106s-6.095-0.939-3.194,3.218
		c2.901,4.157,7.068,3.981,10.116,4.291c3.047,0.309,27.096,0.54,27.096,0.54s16.841,2.022,17.755-10.647
		c0,0,3.006-10.752-7.582-12.637l-25.027-4.717c0,0-4.65-0.303-3.703-4.154C23.58,20.141,23.889,16.934,28.698,16.916z"/>
	
		<linearGradient id="SVGID_1_" gradientUnits="userSpaceOnUse" x1="1.8955" y1="28.2354" x2="58.0669" y2="28.2354" gradientTransform="matrix(1 -0.0037 0.0037 1 0.625 -0.7529)">
		<stop  offset="0" style="stop-color:#DADADA"/>
		<stop  offset="0.1742" style="stop-color:#D7D7D7"/>
		<stop  offset="0.3567" style="stop-color:#CDCDCD"/>
		<stop  offset="0.5429" style="stop-color:#BDBDBC"/>
		<stop  offset="0.7319" style="stop-color:#A5A5A4"/>
		<stop  offset="0.921" style="stop-color:#858585"/>
		<stop  offset="1" style="stop-color:#757474"/>
	</linearGradient>
	<path fill="url(#SVGID_1_)" stroke="#FFFFFF" stroke-width="0.75" stroke-miterlimit="10" d="M27.237,13.621l27.415-0.102
		c0,0,3.526-0.013,2.557-2.093c-0.97-2.081-4.025-4.794-10.921-5.25C39.392,5.72,21.436,5.626,21.436,5.626
		S4.118,4.889,4.153,14.348S3.226,23.65,7.406,26.68c4.18,3.031,18.615,4.901,18.615,4.901s13.151,1.394,13.32,3.637
		c0.168,2.244-0.622,5.293-4.147,5.627c-3.526,0.334-28.537,0.106-28.537,0.106s-6.095-0.939-3.194,3.218
		c2.901,4.157,7.068,3.981,10.116,4.291c3.047,0.309,27.096,0.54,27.096,0.54s16.841,2.022,17.756-10.647
		c0,0,3.006-10.752-7.582-12.637L25.821,21c0,0-4.65-0.303-3.703-4.154C22.119,16.846,22.427,13.639,27.237,13.621z"/>
</g>
</svg>
