<?xml version="1.0" encoding="utf-8"?>
<!-- Generator: Adobe Illustrator 16.0.0, SVG Export Plug-In . SVG Version: 6.00 Build 0)  -->
<!DOCTYPE svg PUBLIC "-//W3C//DTD SVG 1.1//EN" "http://www.w3.org/Graphics/SVG/1.1/DTD/svg11.dtd">
<svg version="1.1" id="Слой_1" xmlns="http://www.w3.org/2000/svg" xmlns:xlink="http://www.w3.org/1999/xlink" x="0px" y="0px"
	 width="187.604px" height="61.538px" viewBox="0 0 187.604 61.538" enable-background="new 0 0 187.604 61.538"
	 xml:space="preserve">
<g>
	<g>
		<g>
			<path fill="#525251" d="M68.023,12.279c0,0,0-3.941,3.941-3.941s12.822,0,12.822,0s2.127-0.625,2.127,1.971s0,31.496,0,31.496
				s-0.25,2.127,2.252,2.127s34.529,0,34.529,0s2.877-0.751,2.002,1.751c-0.877,2.502-4.754,6.63-14.512,6.63
				c-9.76,0-39.408,0-39.408,0s-3.439-0.75-3.439-3.44C68.337,46.183,68.023,12.279,68.023,12.279z"/>
			<linearGradient id="SVGID_1_" gradientUnits="userSpaceOnUse" x1="65.2065" y1="27.5034" x2="122.1704" y2="27.5034">
				<stop  offset="0" style="stop-color:#DADADA"/>
				<stop  offset="0.1742" style="stop-color:#D7D7D7"/>
				<stop  offset="0.3567" style="stop-color:#CDCDCD"/>
				<stop  offset="0.5429" style="stop-color:#BDBDBC"/>
				<stop  offset="0.7319" style="stop-color:#A5A5A4"/>
				<stop  offset="0.921" style="stop-color:#858585"/>
				<stop  offset="1" style="stop-color:#757474"/>
			</linearGradient>
			<path fill="url(#SVGID_1_)" stroke="#FFFFFF" stroke-width="0.7542" stroke-miterlimit="10" d="M65.207,9.763
				c0,0,0-3.881,3.883-3.881c3.881,0,12.629,0,12.629,0s2.094-0.616,2.094,1.94s0,31.019,0,31.019s-0.246,2.095,2.217,2.095
				c2.467,0,34.006,0,34.006,0s2.834-0.739,1.973,1.725c-0.861,2.463-4.684,6.53-14.293,6.53c-9.611,0-38.811,0-38.811,0
				s-3.389-0.739-3.389-3.389C65.515,43.153,65.207,9.763,65.207,9.763z"/>
		</g>
		<g>
			<path fill="#525251" d="M27.88,16.813l27.414-0.102c0,0,3.527-0.013,2.557-2.093c-0.969-2.081-4.025-4.795-10.92-5.25
				c-6.896-0.455-24.853-0.549-24.853-0.549S4.761,8.082,4.796,17.541s-0.927,9.302,3.252,12.333
				c4.18,3.031,18.615,4.901,18.615,4.901s13.152,1.394,13.32,3.637c0.169,2.244-0.621,5.293-4.146,5.627
				C32.311,44.372,7.3,44.145,7.3,44.145s-6.095-0.939-3.194,3.218c2.901,4.157,7.068,3.981,10.116,4.291
				c3.047,0.309,27.096,0.54,27.096,0.54s16.842,2.022,17.756-10.647c0,0,3.006-10.752-7.582-12.637l-25.027-4.717
				c0,0-4.65-0.303-3.703-4.154C22.762,20.039,23.07,16.832,27.88,16.813z"/>
			
				<linearGradient id="SVGID_2_" gradientUnits="userSpaceOnUse" x1="1.0776" y1="28.1245" x2="57.249" y2="28.1245" gradientTransform="matrix(1 -0.0037 0.0037 1 0.625 -0.7476)">
				<stop  offset="0" style="stop-color:#DADADA"/>
				<stop  offset="0.1742" style="stop-color:#D7D7D7"/>
				<stop  offset="0.3567" style="stop-color:#CDCDCD"/>
				<stop  offset="0.5429" style="stop-color:#BDBDBC"/>
				<stop  offset="0.7319" style="stop-color:#A5A5A4"/>
				<stop  offset="0.921" style="stop-color:#858585"/>
				<stop  offset="1" style="stop-color:#757474"/>
			</linearGradient>
			<path fill="url(#SVGID_2_)" stroke="#FFFFFF" stroke-width="0.75" stroke-miterlimit="10" d="M26.418,13.519l27.415-0.102
				c0,0,3.526-0.013,2.557-2.093c-0.97-2.081-4.025-4.794-10.921-5.25c-6.896-0.455-24.852-0.549-24.852-0.549
				S3.3,4.787,3.335,14.246s-0.927,9.302,3.252,12.333c4.18,3.031,18.615,4.901,18.615,4.901s13.151,1.394,13.32,3.637
				c0.168,2.244-0.621,5.293-4.147,5.627C30.849,41.077,5.839,40.85,5.839,40.85s-6.095-0.939-3.194,3.218
				c2.901,4.157,7.068,3.981,10.116,4.291c3.047,0.309,27.096,0.54,27.096,0.54s16.841,2.022,17.756-10.647
				c0,0,3.006-10.752-7.582-12.637l-25.028-4.717c0,0-4.65-0.303-3.703-4.154C21.3,16.744,21.609,13.537,26.418,13.519z"/>
		</g>
	</g>
	<g>
		<path fill="#525251" d="M128.671,31.019V20.891c0,0-0.83-12.452,13.117-12.95h29.387c0,0,9.133-0.83,12.951,3.985
			c0,0,4.15,3.985-0.996,3.985h-29.389c0,0-6.309,0.498-6.309,6.807v13.614c0,0-0.166,7.638,5.148,7.638h28.059h4.15
			c0,0,1.66,0.498,0,3.32c0,0-2.656,4.649-11.125,4.649h-30.549c0,0-14.453,0.83-14.453-12.12L128.671,31.019z"/>
		<linearGradient id="SVGID_3_" gradientUnits="userSpaceOnUse" x1="126.4722" y1="27.1816" x2="182.5845" y2="27.1816">
			<stop  offset="0" style="stop-color:#DADADA"/>
			<stop  offset="0.1742" style="stop-color:#D7D7D7"/>
			<stop  offset="0.3567" style="stop-color:#CDCDCD"/>
			<stop  offset="0.5429" style="stop-color:#BDBDBC"/>
			<stop  offset="0.7319" style="stop-color:#A5A5A4"/>
			<stop  offset="0.921" style="stop-color:#858585"/>
			<stop  offset="1" style="stop-color:#757474"/>
		</linearGradient>
		<path fill="url(#SVGID_3_)" stroke="#FFFFFF" stroke-width="0.75" stroke-miterlimit="10" d="M126.482,28.265v-9.961
			c0,0-0.818-12.25,12.902-12.74h28.904c0,0,8.982-0.815,12.74,3.921c0,0,4.082,3.919-0.98,3.919H151.14c0,0-6.205,0.49-6.205,6.696
			v13.391c0,0-0.162,7.513,5.064,7.513h27.6h4.082c0,0,1.633,0.489,0,3.266c0,0-2.613,4.573-10.941,4.573h-30.051
			c0,0-14.217,0.816-14.217-11.922L126.482,28.265z"/>
	</g>
</g>
</svg>
