<?xml version="1.0" encoding="utf-8"?>
<!-- Generator: Adobe Illustrator 16.0.0, SVG Export Plug-In . SVG Version: 6.00 Build 0)  -->
<!DOCTYPE svg PUBLIC "-//W3C//DTD SVG 1.1//EN" "http://www.w3.org/Graphics/SVG/1.1/DTD/svg11.dtd">
<svg version="1.1" id="Слой_1" xmlns="http://www.w3.org/2000/svg" xmlns:xlink="http://www.w3.org/1999/xlink" x="0px" y="0px"
	 width="126.741px" height="61.538px" viewBox="0 0 126.741 61.538" enable-background="new 0 0 126.741 61.538"
	 xml:space="preserve">
<g>
	<g>
		<path fill="#525251" d="M67.529,12.445c0,0,0-3.941,3.941-3.941s12.824,0,12.824,0s2.127-0.625,2.127,1.971s0,31.496,0,31.496
			s-0.252,2.127,2.252,2.127c2.502,0,34.529,0,34.529,0s2.875-0.751,2,1.751s-4.752,6.63-14.512,6.63c-9.758,0-39.407,0-39.407,0
			s-3.44-0.75-3.44-3.44C67.843,46.349,67.529,12.445,67.529,12.445z"/>
		<linearGradient id="SVGID_1_" gradientUnits="userSpaceOnUse" x1="64.7134" y1="27.6699" x2="121.6772" y2="27.6699">
			<stop  offset="0" style="stop-color:#DADADA"/>
			<stop  offset="0.1742" style="stop-color:#D7D7D7"/>
			<stop  offset="0.3567" style="stop-color:#CDCDCD"/>
			<stop  offset="0.5429" style="stop-color:#BDBDBC"/>
			<stop  offset="0.7319" style="stop-color:#A5A5A4"/>
			<stop  offset="0.921" style="stop-color:#858585"/>
			<stop  offset="1" style="stop-color:#757474"/>
		</linearGradient>
		<path fill="url(#SVGID_1_)" stroke="#FFFFFF" stroke-width="0.7542" stroke-miterlimit="10" d="M64.713,9.93
			c0,0,0-3.881,3.882-3.881c3.881,0,12.631,0,12.631,0s2.092-0.616,2.092,1.94s0,31.019,0,31.019s-0.246,2.095,2.219,2.095
			s34.006,0,34.006,0s2.834-0.739,1.971,1.725c-0.861,2.463-4.682,6.53-14.293,6.53s-38.811,0-38.811,0s-3.389-0.739-3.389-3.389
			C65.021,43.32,64.713,9.93,64.713,9.93z"/>
	</g>
	<g>
		<path fill="#525251" d="M27.386,16.98l27.415-0.102c0,0,3.527-0.013,2.557-2.093c-0.97-2.081-4.026-4.795-10.921-5.25
			C39.541,9.08,21.585,8.985,21.585,8.985S4.268,8.249,4.303,17.707S3.375,27.009,7.555,30.04c4.18,3.031,18.615,4.901,18.615,4.901
			s13.151,1.394,13.32,3.637c0.168,2.244-0.622,5.293-4.147,5.627c-3.526,0.334-28.537,0.106-28.537,0.106s-6.095-0.939-3.194,3.218
			c2.901,4.157,7.068,3.981,10.116,4.291c3.047,0.309,27.096,0.54,27.096,0.54s16.841,2.022,17.755-10.647
			c0,0,3.006-10.752-7.582-12.637L25.971,24.36c0,0-4.65-0.303-3.703-4.154C22.268,20.206,22.577,16.998,27.386,16.98z"/>
		
			<linearGradient id="SVGID_2_" gradientUnits="userSpaceOnUse" x1="0.583" y1="28.2891" x2="56.7544" y2="28.2891" gradientTransform="matrix(1 -0.0037 0.0037 1 0.625 -0.7476)">
			<stop  offset="0" style="stop-color:#DADADA"/>
			<stop  offset="0.1742" style="stop-color:#D7D7D7"/>
			<stop  offset="0.3567" style="stop-color:#CDCDCD"/>
			<stop  offset="0.5429" style="stop-color:#BDBDBC"/>
			<stop  offset="0.7319" style="stop-color:#A5A5A4"/>
			<stop  offset="0.921" style="stop-color:#858585"/>
			<stop  offset="1" style="stop-color:#757474"/>
		</linearGradient>
		<path fill="url(#SVGID_2_)" stroke="#FFFFFF" stroke-width="0.75" stroke-miterlimit="10" d="M25.925,13.685l27.415-0.102
			c0,0,3.527-0.013,2.557-2.093c-0.97-2.081-4.026-4.794-10.921-5.25C38.08,5.785,20.124,5.69,20.124,5.69S2.806,4.954,2.841,14.412
			s-0.927,9.302,3.252,12.333c4.18,3.031,18.615,4.901,18.615,4.901s13.151,1.394,13.32,3.637c0.168,2.244-0.622,5.293-4.147,5.627
			c-3.526,0.334-28.537,0.106-28.537,0.106s-6.095-0.939-3.194,3.218c2.901,4.157,7.068,3.981,10.116,4.291
			c3.047,0.309,27.096,0.54,27.096,0.54s16.841,2.022,17.755-10.647c0,0,3.006-10.752-7.582-12.637l-25.028-4.717
			c0,0-4.65-0.303-3.703-4.154C20.807,16.911,21.115,13.703,25.925,13.685z"/>
	</g>
</g>
</svg>
