<?xml version="1.0" encoding="utf-8"?>
<!-- Generator: Adobe Illustrator 16.0.0, SVG Export Plug-In . SVG Version: 6.00 Build 0)  -->
<!DOCTYPE svg PUBLIC "-//W3C//DTD SVG 1.1//EN" "http://www.w3.org/Graphics/SVG/1.1/DTD/svg11.dtd">
<svg version="1.1" id="Слой_1" xmlns="http://www.w3.org/2000/svg" xmlns:xlink="http://www.w3.org/1999/xlink" x="0px" y="0px"
	 width="197.271px" height="61.538px" viewBox="0 0 197.271 61.538" enable-background="new 0 0 197.271 61.538"
	 xml:space="preserve">
<g>
	<g>
		<path fill="#525251" d="M67.856,12.644c0,0,0-3.941,3.941-3.941s12.823,0,12.823,0s2.127-0.625,2.127,1.971s0,31.496,0,31.496
			S86.497,44.296,89,44.296c2.502,0,34.529,0,34.529,0s2.877-0.751,2.002,1.751c-0.877,2.502-4.754,6.63-14.512,6.63
			c-9.76,0-39.408,0-39.408,0s-3.44-0.75-3.44-3.44C68.17,46.547,67.856,12.644,67.856,12.644z"/>
		<linearGradient id="SVGID_1_" gradientUnits="userSpaceOnUse" x1="65.0405" y1="27.8682" x2="122.0044" y2="27.8682">
			<stop  offset="0" style="stop-color:#DADADA"/>
			<stop  offset="0.1742" style="stop-color:#D7D7D7"/>
			<stop  offset="0.3567" style="stop-color:#CDCDCD"/>
			<stop  offset="0.5429" style="stop-color:#BDBDBC"/>
			<stop  offset="0.7319" style="stop-color:#A5A5A4"/>
			<stop  offset="0.921" style="stop-color:#858585"/>
			<stop  offset="1" style="stop-color:#757474"/>
		</linearGradient>
		<path fill="url(#SVGID_1_)" stroke="#FFFFFF" stroke-width="0.7542" stroke-miterlimit="10" d="M65.041,10.128
			c0,0,0-3.881,3.882-3.881c3.881,0,12.63,0,12.63,0s2.093-0.616,2.093,1.94s0,31.019,0,31.019S83.399,41.3,85.863,41.3
			c2.466,0,34.006,0,34.006,0s2.834-0.739,1.973,1.725c-0.861,2.463-4.684,6.53-14.293,6.53c-9.612,0-38.812,0-38.812,0
			s-3.389-0.739-3.389-3.389C65.348,43.518,65.041,10.128,65.041,10.128z"/>
	</g>
	<g>
		<path fill="#525251" d="M27.713,17.178l27.415-0.102c0,0,3.526-0.013,2.557-2.093c-0.97-2.081-4.025-4.795-10.921-5.25
			S21.912,9.184,21.912,9.184S4.595,8.447,4.63,17.905s-0.928,9.302,3.252,12.333s18.615,4.901,18.615,4.901
			s13.151,1.394,13.32,3.637c0.168,2.244-0.621,5.293-4.147,5.627c-3.526,0.334-28.536,0.106-28.536,0.106S1.039,43.57,3.94,47.728
			c2.901,4.157,7.068,3.981,10.116,4.291c3.047,0.309,27.096,0.54,27.096,0.54s16.841,2.022,17.756-10.647
			c0,0,3.006-10.752-7.582-12.637l-25.027-4.717c0,0-4.65-0.303-3.703-4.154C22.595,20.404,22.904,17.196,27.713,17.178z"/>
		
			<linearGradient id="SVGID_2_" gradientUnits="userSpaceOnUse" x1="0.9097" y1="28.4883" x2="57.0811" y2="28.4883" gradientTransform="matrix(1 -0.0037 0.0037 1 0.625 -0.7476)">
			<stop  offset="0" style="stop-color:#DADADA"/>
			<stop  offset="0.1742" style="stop-color:#D7D7D7"/>
			<stop  offset="0.3567" style="stop-color:#CDCDCD"/>
			<stop  offset="0.5429" style="stop-color:#BDBDBC"/>
			<stop  offset="0.7319" style="stop-color:#A5A5A4"/>
			<stop  offset="0.921" style="stop-color:#858585"/>
			<stop  offset="1" style="stop-color:#757474"/>
		</linearGradient>
		<path fill="url(#SVGID_2_)" stroke="#FFFFFF" stroke-width="0.75" stroke-miterlimit="10" d="M26.251,13.883l27.415-0.102
			c0,0,3.526-0.013,2.558-2.093c-0.971-2.081-4.026-4.794-10.922-5.25c-6.896-0.455-24.852-0.549-24.852-0.549
			S3.133,5.152,3.168,14.61s-0.927,9.302,3.253,12.333c4.18,3.031,18.615,4.901,18.615,4.901s13.15,1.394,13.32,3.637
			c0.168,2.244-0.622,5.293-4.148,5.627c-3.525,0.334-28.536,0.106-28.536,0.106s-6.095-0.939-3.194,3.218
			c2.901,4.157,7.068,3.981,10.116,4.291c3.048,0.309,27.097,0.54,27.097,0.54s16.84,2.022,17.755-10.647
			c0,0,3.007-10.752-7.581-12.637l-25.028-4.717c0,0-4.65-0.303-3.702-4.154C21.134,17.109,21.443,13.901,26.251,13.883z"/>
	</g>
</g>
<g>
	<path fill="#525251" d="M131.078,51.261V12.462c0,0-0.152-2.586,2.586-2.586s14.605,0,14.605,0s2.131,0.152,2.131,2.13
		c0,1.978,0,11.259,0,11.259s0.609,1.217,1.826,0s17.65-12.324,17.65-12.324h21.756l-25.865,19.627l27.691,22.671h-24.191
		l-19.322-15.976l-0.457,15.976h-17.803h-0.609L131.078,51.261z"/>
	<linearGradient id="SVGID_3_" gradientUnits="userSpaceOnUse" x1="126.8823" y1="27.5571" x2="189.2671" y2="27.5571">
		<stop  offset="0" style="stop-color:#DADADA"/>
		<stop  offset="0.1742" style="stop-color:#D7D7D7"/>
		<stop  offset="0.3567" style="stop-color:#CDCDCD"/>
		<stop  offset="0.5429" style="stop-color:#BDBDBC"/>
		<stop  offset="0.7319" style="stop-color:#A5A5A4"/>
		<stop  offset="0.921" style="stop-color:#858585"/>
		<stop  offset="1" style="stop-color:#757474"/>
	</linearGradient>
	<path fill="url(#SVGID_3_)" stroke="#FFFFFF" stroke-width="0.75" stroke-miterlimit="10" d="M126.884,47.261V8.462
		c0,0-0.152-2.586,2.586-2.586c2.74,0,14.607,0,14.607,0s2.131,0.152,2.131,2.13c0,1.978,0,11.259,0,11.259s0.607,1.217,1.826,0
		c1.217-1.217,17.648-12.324,17.648-12.324h21.758l-25.865,19.627l27.691,22.671h-24.193l-19.322-15.976l-0.457,15.976h-17.801
		h-0.609V47.261z"/>
</g>
</svg>
