<?xml version="1.0" encoding="utf-8"?>
<!-- Generator: Adobe Illustrator 16.0.0, SVG Export Plug-In . SVG Version: 6.00 Build 0)  -->
<!DOCTYPE svg PUBLIC "-//W3C//DTD SVG 1.1//EN" "http://www.w3.org/Graphics/SVG/1.1/DTD/svg11.dtd">
<svg version="1.1" id="Слой_1" xmlns="http://www.w3.org/2000/svg" xmlns:xlink="http://www.w3.org/1999/xlink" x="0px" y="0px"
	 width="196.604px" height="61.539px" viewBox="0 0 196.604 61.539" enable-background="new 0 0 196.604 61.539"
	 xml:space="preserve">
<g>
	<path fill="#525251" d="M192.667,47.245l-10.748-10.747c0,0,7.908-4.607,7.908-11.747v-8.062c0,0-1.843-7.831-9.751-7.831
		s-42.532,0-42.532,0s-2.918-0.537-2.918,2.533c0,3.071,0,37.619,0,37.619s-0.384,3.303,2.303,3.303h12.362
		c0,0,2.764-0.23,2.764-2.072c0-1.844,0-12.821,0-12.821s1.382-3.379,4.684-1.92l14.971,15.278c0,0,0.459,1.15,3.607,1.15
		s14.127,0,14.127,0S194.818,50.624,192.667,47.245z M167.639,27.054h-14.817v-7.907c0,0-0.384-0.997,2.073-0.997h12.744
		c0,0,3.302,0.229,3.302,2.226c0,1.996,0,3.915,0,3.915S171.094,27.054,167.639,27.054z"/>
	<linearGradient id="SVGID_1_" gradientUnits="userSpaceOnUse" x1="130.3118" y1="28.1128" x2="188.8792" y2="28.1128">
		<stop  offset="0" style="stop-color:#D9D9D9"/>
		<stop  offset="0.1915" style="stop-color:#D5D5D5"/>
		<stop  offset="0.392" style="stop-color:#C8C8C8"/>
		<stop  offset="0.5967" style="stop-color:#B4B4B3"/>
		<stop  offset="0.8029" style="stop-color:#979796"/>
		<stop  offset="1" style="stop-color:#747473"/>
	</linearGradient>
	<path fill="url(#SVGID_1_)" stroke="#FFFFFF" stroke-width="0.75" stroke-miterlimit="10" d="M188.371,44.79l-10.748-10.747
		c0,0,7.908-4.606,7.908-11.747v-8.062c0,0-1.843-7.831-9.751-7.831s-42.532,0-42.532,0s-2.918-0.537-2.918,2.533
		c0,3.072,0,37.621,0,37.621s-0.384,3.301,2.303,3.301h12.362c0,0,2.764-0.23,2.764-2.072c0-1.844,0-12.821,0-12.821
		s1.382-3.379,4.683-1.92l14.972,15.278c0,0,0.459,1.15,3.607,1.15c3.147,0,14.127,0,14.127,0S190.522,48.168,188.371,44.79z
		 M163.343,24.6h-14.817v-7.908c0,0-0.384-0.997,2.073-0.997h12.744c0,0,3.302,0.229,3.302,2.226c0,1.996,0,3.915,0,3.915
		S166.798,24.6,163.343,24.6z"/>
</g>
<g>
	<g>
		<path fill="#525251" d="M69.793,13.137c0,0,0-3.94,3.941-3.94s12.823,0,12.823,0s2.127-0.625,2.127,1.971s0,31.495,0,31.495
			s-0.251,2.128,2.252,2.128c2.502,0,34.529,0,34.529,0s2.876-0.751,2.001,1.75c-0.876,2.502-4.753,6.631-14.512,6.631
			s-39.407,0-39.407,0s-3.44-0.75-3.44-3.441C70.108,47.04,69.793,13.137,69.793,13.137z"/>
		<linearGradient id="SVGID_2_" gradientUnits="userSpaceOnUse" x1="66.9778" y1="28.3608" x2="123.9407" y2="28.3608">
			<stop  offset="0" style="stop-color:#D9D9D9"/>
			<stop  offset="0.1915" style="stop-color:#D5D5D5"/>
			<stop  offset="0.392" style="stop-color:#C8C8C8"/>
			<stop  offset="0.5967" style="stop-color:#B4B4B3"/>
			<stop  offset="0.8029" style="stop-color:#979796"/>
			<stop  offset="1" style="stop-color:#747473"/>
		</linearGradient>
		<path fill="url(#SVGID_2_)" stroke="#FFFFFF" stroke-width="0.7542" stroke-miterlimit="10" d="M66.978,10.621
			c0,0,0-3.882,3.882-3.882c3.881,0,12.63,0,12.63,0s2.093-0.615,2.093,1.941c0,2.556,0,31.018,0,31.018s-0.246,2.096,2.218,2.096
			c2.466,0,34.006,0,34.006,0s2.834-0.74,1.972,1.725c-0.861,2.462-4.683,6.528-14.293,6.528c-9.611,0-38.811,0-38.811,0
			s-3.389-0.738-3.389-3.389C67.285,44.011,66.978,10.621,66.978,10.621z"/>
	</g>
	<g>
		<path fill="#525251" d="M29.651,17.671l27.415-0.102c0,0,3.526-0.014,2.557-2.094s-4.025-4.795-10.921-5.25
			S23.849,9.677,23.849,9.677S6.532,8.94,6.568,18.398S5.64,27.7,9.82,30.732c4.18,3.029,18.615,4.9,18.615,4.9
			s13.151,1.393,13.32,3.637c0.168,2.244-0.621,5.293-4.147,5.626c-3.526,0.334-28.536,0.107-28.536,0.107s-6.096-0.938-3.194,3.219
			c2.901,4.156,7.068,3.98,10.116,4.291c3.047,0.309,27.096,0.539,27.096,0.539s16.841,2.021,17.756-10.646
			c0,0,3.006-10.754-7.582-12.637l-25.027-4.717c0,0-4.65-0.304-3.703-4.154C24.532,20.897,24.841,17.689,29.651,17.671z"/>
		
			<linearGradient id="SVGID_3_" gradientUnits="userSpaceOnUse" x1="2.6936" y1="28.894" x2="58.865" y2="28.894" gradientTransform="matrix(1 -0.0037 0.0037 1 0.7767 -0.6527)">
			<stop  offset="0" style="stop-color:#D9D9D9"/>
			<stop  offset="0.1915" style="stop-color:#D5D5D5"/>
			<stop  offset="0.392" style="stop-color:#C8C8C8"/>
			<stop  offset="0.5967" style="stop-color:#B4B4B3"/>
			<stop  offset="0.8029" style="stop-color:#979796"/>
			<stop  offset="1" style="stop-color:#747473"/>
		</linearGradient>
		<path fill="url(#SVGID_3_)" stroke="#FFFFFF" stroke-width="0.75" stroke-miterlimit="10" d="M28.189,14.376l27.415-0.102
			c0,0,3.526-0.013,2.558-2.094c-0.971-2.08-4.026-4.794-10.922-5.25c-6.896-0.455-24.852-0.549-24.852-0.549
			S5.071,5.646,5.106,15.104s-0.927,9.302,3.253,12.333c4.18,3.03,18.615,4.901,18.615,4.901s13.15,1.393,13.32,3.637
			c0.168,2.244-0.622,5.293-4.148,5.627C32.62,41.935,7.61,41.708,7.61,41.708s-6.095-0.939-3.194,3.218
			c2.901,4.156,7.068,3.98,10.116,4.291c3.048,0.309,27.097,0.539,27.097,0.539s16.84,2.021,17.755-10.646
			c0,0,3.007-10.753-7.581-12.637l-25.028-4.717c0,0-4.65-0.304-3.702-4.154C23.072,17.603,23.38,14.395,28.189,14.376z"/>
	</g>
</g>
</svg>
