<?xml version="1.0" encoding="utf-8"?>
<!-- Generator: Adobe Illustrator 16.0.0, SVG Export Plug-In . SVG Version: 6.00 Build 0)  -->
<!DOCTYPE svg PUBLIC "-//W3C//DTD SVG 1.1//EN" "http://www.w3.org/Graphics/SVG/1.1/DTD/svg11.dtd">
<svg version="1.1" id="Слой_1" xmlns="http://www.w3.org/2000/svg" xmlns:xlink="http://www.w3.org/1999/xlink" x="0px" y="0px"
	 width="250.937px" height="61.538px" viewBox="0 0 250.937 61.538" enable-background="new 0 0 250.937 61.538"
	 xml:space="preserve">
<g>
	<g>
		<polygon fill="#525251" points="3.136,9.938 26.857,10.552 34.105,33.691 67.897,8.867 83.188,9.262 27.521,53.137 15.367,52.823 
					"/>
		<polygon fill="#525251" points="30.266,53.208 42.027,53.512 71.926,27.606 74.209,37.866 63.807,38.186 59.885,41.909 
			75.077,42.302 78.926,52.701 95.198,53.122 87.028,20.15 71.344,19.745 		"/>
		<polygon fill="#525251" points="94.241,44.661 103.709,19.797 116.844,20.136 133.237,38.607 139.616,19.547 150.004,19.815 
			139.342,52.889 125.03,52.519 107.557,34.118 101.487,52.695 96.586,52.568 		"/>
		<path fill="#525251" d="M151.18,19.846l39.041-0.167l-0.08,3.136l-21.918-0.566l-3.635,10.106l21.369,0.552l-0.064,2.431
			l-22.348-0.577l-2.801,9.657c0,0-0.727,3.905,3.025,4.394c3.754,0.49,21.174,0.547,21.174,0.547l-0.85,2.528l-42.58,0.47
			L151.18,19.846z"/>
		<path fill="#525251" d="M217.42,18.224c-24.117,0.372-30.66,14.548-30.66,14.548c-6.404,16.569,14.82,20.105,23.582,20.333
			c8.76,0.226,34.953-3.479,37.953-19.34C251.295,17.904,217.42,18.224,217.42,18.224z M229.672,34.037
			c0,0-2.16,15.245-18.43,14.824c-12.738-0.525-10.234-13.897-10.234-13.897s0.939-13.609,17.217-13.385
			C230.961,22.104,230.147,30.911,229.672,34.037z"/>
	</g>
	<g>
		<linearGradient id="SVGID_1_" gradientUnits="userSpaceOnUse" x1="1.9404" y1="28.4453" x2="81.9946" y2="28.4453">
			<stop  offset="0" style="stop-color:#DADADA"/>
			<stop  offset="0.1742" style="stop-color:#D7D7D7"/>
			<stop  offset="0.3567" style="stop-color:#CDCDCD"/>
			<stop  offset="0.5429" style="stop-color:#BDBDBC"/>
			<stop  offset="0.7319" style="stop-color:#A5A5A4"/>
			<stop  offset="0.921" style="stop-color:#858585"/>
			<stop  offset="1" style="stop-color:#757474"/>
		</linearGradient>
		<polygon fill="url(#SVGID_1_)" stroke="#FFFFFF" stroke-width="0.8966" stroke-miterlimit="10" points="1.94,7.382 25.661,7.995 
			32.909,31.134 66.704,6.31 81.995,6.705 26.325,50.581 14.171,50.267 		"/>
		<linearGradient id="SVGID_2_" gradientUnits="userSpaceOnUse" x1="29.0693" y1="34.0723" x2="94.0044" y2="34.0723">
			<stop  offset="0" style="stop-color:#DADADA"/>
			<stop  offset="0.1742" style="stop-color:#D7D7D7"/>
			<stop  offset="0.3567" style="stop-color:#CDCDCD"/>
			<stop  offset="0.5429" style="stop-color:#BDBDBC"/>
			<stop  offset="0.7319" style="stop-color:#A5A5A4"/>
			<stop  offset="0.921" style="stop-color:#858585"/>
			<stop  offset="1" style="stop-color:#757474"/>
		</linearGradient>
		<polygon fill="url(#SVGID_2_)" stroke="#FFFFFF" stroke-width="0.8966" stroke-miterlimit="10" points="29.069,50.652 
			40.831,50.956 70.731,25.049 73.014,35.31 62.61,35.629 58.689,39.353 73.883,39.746 77.733,50.144 94.004,50.565 85.831,17.593 
			70.149,17.188 		"/>
		<linearGradient id="SVGID_3_" gradientUnits="userSpaceOnUse" x1="93.0454" y1="33.6611" x2="148.8091" y2="33.6611">
			<stop  offset="0" style="stop-color:#DADADA"/>
			<stop  offset="0.1742" style="stop-color:#D7D7D7"/>
			<stop  offset="0.3567" style="stop-color:#CDCDCD"/>
			<stop  offset="0.5429" style="stop-color:#BDBDBC"/>
			<stop  offset="0.7319" style="stop-color:#A5A5A4"/>
			<stop  offset="0.921" style="stop-color:#858585"/>
			<stop  offset="1" style="stop-color:#757474"/>
		</linearGradient>
		<polygon fill="url(#SVGID_3_)" stroke="#FFFFFF" stroke-width="0.8966" stroke-miterlimit="10" points="93.045,42.104 
			102.514,17.24 115.651,17.58 132.042,36.05 138.42,16.99 148.809,17.259 138.147,50.332 123.836,49.962 106.362,31.562 
			100.292,50.138 95.389,50.012 		"/>
		<linearGradient id="SVGID_4_" gradientUnits="userSpaceOnUse" x1="140.3188" y1="33.4609" x2="189.0259" y2="33.4609">
			<stop  offset="0" style="stop-color:#DADADA"/>
			<stop  offset="0.1742" style="stop-color:#D7D7D7"/>
			<stop  offset="0.3567" style="stop-color:#CDCDCD"/>
			<stop  offset="0.5429" style="stop-color:#BDBDBC"/>
			<stop  offset="0.7319" style="stop-color:#A5A5A4"/>
			<stop  offset="0.921" style="stop-color:#858585"/>
			<stop  offset="1" style="stop-color:#757474"/>
		</linearGradient>
		<path fill="url(#SVGID_4_)" stroke="#FFFFFF" stroke-width="0.8966" stroke-miterlimit="10" d="M149.985,17.289l39.041-0.167
			l-0.08,3.136l-21.92-0.565l-3.633,10.106l21.367,0.552l-0.062,2.431l-22.348-0.577l-2.801,9.657c0,0-0.727,3.904,3.025,4.394
			c3.754,0.49,21.174,0.547,21.174,0.547l-0.85,2.528l-42.58,0.47L149.985,17.289z"/>
		<linearGradient id="SVGID_5_" gradientUnits="userSpaceOnUse" x1="184.3794" y1="33.1123" x2="247.2886" y2="33.1123">
			<stop  offset="0" style="stop-color:#DADADA"/>
			<stop  offset="0.1742" style="stop-color:#D7D7D7"/>
			<stop  offset="0.3567" style="stop-color:#CDCDCD"/>
			<stop  offset="0.5429" style="stop-color:#BDBDBC"/>
			<stop  offset="0.7319" style="stop-color:#A5A5A4"/>
			<stop  offset="0.921" style="stop-color:#858585"/>
			<stop  offset="1" style="stop-color:#757474"/>
		</linearGradient>
		<path fill="url(#SVGID_5_)" stroke="#FFFFFF" stroke-width="0.8966" stroke-miterlimit="10" d="M216.223,15.667
			c-24.113,0.371-30.658,14.547-30.658,14.547c-6.406,16.569,14.82,20.105,23.582,20.333c8.76,0.226,34.953-3.479,37.953-19.34
			C250.1,15.347,216.223,15.667,216.223,15.667z M228.477,31.481c0,0-2.16,15.245-18.43,14.824
			c-12.738-0.525-10.234-13.898-10.234-13.898s0.941-13.608,17.215-13.385C229.768,19.548,228.952,28.354,228.477,31.481z"/>
	</g>
</g>
</svg>
